<svg
    xmlns="http://www.w3.org/2000/svg"
    id="svg0.32870411484086026"
    width="1024"
    height="1024">
    <defs>
        <linearGradient
            id="line1Gradient"
            x1="0%"
            y1="0%"
            x2="0%"
            y2="100%">
            <stop
                offset="0%"
                stop-color="#B758BD"
                />
            <stop
                offset="100%"
                stop-color="#A356BC"
                />
        </linearGradient>
    </defs>
    
    <!-- M1 -->
    <line 
        x1="380"
        y1="360"
        x2="380"
        y2="560"
        stroke-width="62"
        stroke-linecap="round"
        stroke="url(#line1Gradient)"
        />
    <!-- M2 -->
    <line
        x1="380"
        y1="360"
        x2="560"
        y2="520"
        stroke="black"
        stroke-width="62"
        stroke-linecap="round"
        />
    <!-- M3 -->
    <line
        x1="600"
        y1="432"
        x2="650"
        y2="382"
        stroke="black"
        stroke-width="62"
        stroke-linecap="square"
        />
    <circle
        cx="672"
        cy="360"
        r="30"
        stroke="black"
        stroke-width="2"
        stroke-linecap="square"
        />
    <!-- M4 -->
    <line
        x1="672"
        y1="360"
        x2="672"
        y2="560"
        stroke="black"
        stroke-width="63"
        stroke-linecap="round"
        />
    <!--
    <path d="M0 0 C337.92 0 675.84 0 1024 0 C1024 337.92 1024 675.84 1024 1024 C686.08 1024 348.16 1024 0 1024 C0 686.08 0 348.16 0 0 Z " transform="translate(0,0)" style="fill: #FEFEFE;"/>
    <path d="M0 0 C3.9447054 2.91446607 7.42021611 6.26783169 10.9284668 9.68554688 C15.69536866 14.2776769 20.49247569 18.78681362 25.49707031 23.11987305 C28.23362794 25.50394918 30.89522401 27.9648946 33.5534668 30.43554688 C34.100271 30.94174561 34.6470752 31.44794434 35.21044922 31.96948242 C37.50629809 34.09490425 39.7998028 36.22284896 42.09350586 38.35058594 C47.74441524 43.59028645 53.39784734 48.81345609 59.2253418 53.85742188 C63.79002788 57.88900593 68.2272746 62.06288964 72.69458008 66.20166016 C80.52690779 73.4482222 88.42328852 80.62262167 96.3659668 87.74804688 C98.86909096 90.00007395 101.37143294 92.25296811 103.8737793 94.50585938 C105.51336558 95.98097306 107.15396334 97.45496339 108.7956543 98.92773438 C113.85904905 103.47346576 118.88884883 108.05423324 123.90014648 112.65722656 C129.47839654 117.77689216 135.11159597 122.83455941 140.75268555 127.88476562 C144.35915577 131.11955454 147.95813143 134.35918413 151.4987793 137.66601562 C156.59065368 142.41762336 161.6770805 147.076831 167.1159668 151.43554688 C171.50847602 154.96364102 175.51314623 158.71478821 179.43237305 162.75976562 C180.96043451 164.33104498 182.55831255 165.83440634 184.1784668 167.31054688 C189.99707926 173.79414362 191.03751359 179.59994224 190.7409668 188.28320312 C189.73777303 197.55229551 185.48021852 204.74503898 178.3659668 210.74804688 C166.99758944 217.60653563 156.42194818 219.076446 143.40893555 217.35742188 C132.56081127 214.62348426 124.45691168 206.08536997 116.57373047 198.61132812 C112.13094733 194.40514291 107.52181348 190.54894306 102.74487305 186.72460938 C100.05491992 184.48960727 97.66352504 182.07628044 95.2409668 179.56054688 C92.89994707 177.29756114 90.40282549 175.28856365 87.8659668 173.24804688 C84.01337092 170.14704883 80.45847215 166.96182599 77.0222168 163.41210938 C74.68045347 161.05929999 72.17139419 158.92328018 69.65893555 156.75585938 C66.89690797 154.33732075 64.19198968 151.85913311 61.4909668 149.37304688 C56.95741484 145.20277625 52.40084789 141.06033152 47.81518555 136.94726562 C46.10575146 135.41231922 44.40033152 133.87289572 42.69799805 132.33007812 C41.38895508 131.14478516 41.38895508 131.14478516 40.0534668 129.93554688 C39.27358398 129.22785156 38.49370117 128.52015625 37.69018555 127.79101562 C36.03598133 126.33698402 34.32222002 124.9495441 32.57299805 123.61132812 C31.84467773 122.99644531 31.11635742 122.3815625 30.3659668 121.74804688 C30.3659668 121.08804688 30.3659668 120.42804688 30.3659668 119.74804688 C29.77895996 119.4832251 29.19195312 119.21840332 28.5871582 118.94555664 C26.29153988 117.70792113 24.70640299 116.38698711 22.8269043 114.58789062 C22.16859619 113.96309814 21.51028809 113.33830566 20.83203125 112.69458008 C20.14197998 112.03159912 19.45192871 111.36861816 18.7409668 110.68554688 C17.30543949 109.32286091 15.86924261 107.96087995 14.43237305 106.59960938 C13.73644043 105.93864258 13.04050781 105.27767578 12.32348633 104.59667969 C6.84868673 99.42641496 1.25771912 94.43945869 -4.6340332 89.74804688 C-4.62850245 90.47396908 -4.62297169 91.19989128 -4.61727333 91.94781113 C-4.48447713 109.65210522 -4.38533847 127.356272 -4.32316017 145.06095505 C-4.29228802 153.62301324 -4.25023565 162.18473796 -4.18139648 170.74658203 C-4.1213898 178.2134812 -4.08283583 185.68013873 -4.06950223 193.14727235 C-4.06171412 197.09724249 -4.04355196 201.04652166 -3.99965286 204.99626923 C-3.95857388 208.72288321 -3.94643393 212.44852937 -3.95538712 216.17534828 C-3.9529792 218.17703809 -3.92087649 220.17862527 -3.88751221 222.18003845 C-3.95337917 231.92050821 -6.27090393 239.80515968 -12.81325722 247.21683884 C-20.56121631 254.81675157 -28.87285261 257.42879687 -39.58911133 257.35961914 C-48.94712807 256.90699037 -56.96407275 252.51000337 -63.2355957 245.61132812 C-68.48919615 238.61141915 -69.7840603 232.17108366 -69.7744751 223.55172729 C-69.77744622 222.71823702 -69.78041734 221.88474674 -69.7834785 221.02599919 C-69.79216076 218.22874844 -69.79367336 215.43154051 -69.79516602 212.63427734 C-69.7997946 210.63023283 -69.80481932 208.62618921 -69.81021118 206.62214661 C-69.82333511 201.17353902 -69.82978038 195.72494376 -69.83422184 190.27632284 C-69.83715317 186.87108412 -69.84125814 183.46584876 -69.84572601 180.06061172 C-69.85940223 169.40324287 -69.86906773 158.7458817 -69.8729279 148.08850467 C-69.87740616 135.79254609 -69.89494279 123.49669881 -69.9239285 111.20077407 C-69.94556172 101.6931825 -69.9556331 92.18562221 -69.95696902 82.67800629 C-69.95801606 77.00137754 -69.96390228 71.32485339 -69.98178864 65.64825058 C-69.99829712 60.30486026 -70.00041127 54.96165285 -69.99164963 49.61824608 C-69.99088069 47.66156842 -69.99520303 45.70488081 -70.00510788 43.74822807 C-70.06789271 30.56785463 -69.66930083 19.75337045 -61.6340332 8.74804688 C-61.21508789 8.1525 -60.79614258 7.55695313 -60.36450195 6.94335938 C-45.49607185 -12.3384664 -18.88216009 -12.79510941 0 0 Z " transform="translate(415.634033203125,335.251953125)" style="fill: #FF00FF;"/>
    <path d="M0 0 C1.26131641 0.85860696 2.51220264 1.73282138 3.75 2.625 C4.78125 3.346875 5.8125 4.06875 6.875 4.8125 C13.09050517 10.19814209 17.94616405 19.59792477 19.02951515 27.72077441 C19.13623144 29.97015078 19.15496259 32.2023499 19.13768005 34.45419312 C19.14575836 35.73405639 19.14575836 35.73405639 19.15399987 37.03977549 C19.1682319 39.88001941 19.1611875 42.71979413 19.15405273 45.56005859 C19.15975881 47.60410434 19.16672399 49.64814689 19.17485046 51.69218445 C19.19277138 57.23150776 19.19161536 62.77067257 19.18590808 68.31001616 C19.18281446 72.93965308 19.18891067 77.56925964 19.19494683 82.19889224 C19.20898717 93.12383153 19.20743503 104.04869262 19.19604492 114.97363281 C19.18456614 126.23218859 19.19863659 137.49050609 19.2254414 148.74903047 C19.24761672 158.42656738 19.25423157 168.1040296 19.24836498 177.7815901 C19.24499838 183.55654267 19.24739085 189.33134253 19.26461601 195.10627365 C19.28011198 200.53842728 19.27609995 205.97022869 19.25731087 211.40236855 C19.25363225 213.39129508 19.25671215 215.38024786 19.26719666 217.36915016 C19.33709187 231.72913204 18.44882098 241.64455617 8.1328125 252.48828125 C-0.20475826 259.96475863 -9.613266 260.18367501 -20.25 259.625 C-28.20778891 258.55217216 -34.20664558 253.69539514 -39.25 247.625 C-44.45723615 239.75335586 -44.97126282 232.71614379 -44.90942383 223.45458984 C-44.91789306 222.05410341 -44.92854447 220.65362875 -44.94119263 219.25317383 C-44.96916199 215.48099241 -44.96689919 211.70938304 -44.95889878 207.9371295 C-44.95575879 203.98393214 -44.98085151 200.03091227 -45.00285339 196.07778931 C-45.04020239 188.60532064 -45.05243594 181.13303392 -45.0554778 173.6604811 C-45.06017859 165.1476275 -45.09313454 156.63495505 -45.12837565 148.12218165 C-45.20018964 130.62313437 -45.2368076 113.1241877 -45.25 95.625 C-45.68109479 96.02860434 -46.11218958 96.43220867 -46.55634785 96.84804344 C-48.52756808 98.6928362 -50.4997374 100.53661132 -52.47192383 102.38037109 C-53.15007393 103.01530991 -53.82822403 103.65024872 -54.52692413 104.3044281 C-58.45877746 107.97872078 -62.43209268 111.58567683 -66.50927734 115.09863281 C-69.09992716 117.37026573 -71.58871598 119.74475564 -74.08496094 122.11914062 C-79.45868632 127.23015054 -84.86644472 132.30055937 -90.5 137.125 C-91.33015625 137.8365625 -92.1603125 138.548125 -93.015625 139.28125 C-95.25 140.625 -95.25 140.625 -97.19360352 140.359375 C-100.66968494 139.11800578 -103.20835703 136.53438463 -105.9375 134.125 C-106.55963379 133.58399658 -107.18176758 133.04299316 -107.82275391 132.4855957 C-112.14240483 128.69484736 -116.24891761 124.74012312 -120.2578125 120.62109375 C-122.10582863 118.76945406 -124.00626357 117.0667805 -126 115.375 C-132.09212777 110.16202075 -137.62330502 104.32889049 -143.25 98.625 C-141.81550316 93.00565522 -137.69668024 89.9343271 -133.5625 86.1875 C-132.799375 85.48302734 -132.03625 84.77855469 -131.25 84.05273438 C-129.67701328 82.60104763 -128.10098708 81.15264757 -126.52197266 79.70751953 C-123.24355398 76.70247856 -119.99733446 73.66353651 -116.75 70.625 C-115.52091085 69.47908352 -114.29174326 68.33325116 -113.0625 67.1875 C-108.94649285 63.34589333 -104.84776572 59.48604496 -100.75 55.625 C-94.79526838 50.01457358 -88.82575275 44.4205272 -82.84155273 38.84155273 C-78.99646976 35.25636184 -75.15571925 31.66663669 -71.32104492 28.0703125 C-69.98634589 26.81916397 -68.65057715 25.56915556 -67.3137207 24.3203125 C-63.86098302 21.09164753 -60.43185552 17.84232205 -57.03515625 14.5546875 C-43.46724729 1.4866572 -43.46724729 1.4866572 -35.25 -2.375 C-34.61449219 -2.70757812 -33.97898437 -3.04015625 -33.32421875 -3.3828125 C-22.73810326 -8.24848049 -9.68225535 -5.80203203 0 0 Z " transform="translate(682.25,332.375)" style="fill: #894AD1;"/>
    <path d="M0 0 C3.12883232 2.57704213 5.5254072 5.46756932 8.015625 8.66015625 C6.695625 8.66015625 5.375625 8.66015625 4.015625 8.66015625 C3.520625 7.67015625 3.520625 7.67015625 3.015625 6.66015625 C1.16590804 5.60994522 1.16590804 5.60994522 -0.984375 4.66015625 C-2.31770833 3.99348958 -3.65104167 3.32682292 -4.984375 2.66015625 C-4.984375 2.00015625 -4.984375 1.34015625 -4.984375 0.66015625 C-5.974375 0.99015625 -6.964375 1.32015625 -7.984375 1.66015625 C-7.984375 1.00015625 -7.984375 0.34015625 -7.984375 -0.33984375 C-10.459375 -0.83484375 -10.459375 -0.83484375 -12.984375 -1.33984375 C-12.984375 -1.99984375 -12.984375 -2.65984375 -12.984375 -3.33984375 C-13.974375 -3.00984375 -14.964375 -2.67984375 -15.984375 -2.33984375 C-15.984375 -3.32984375 -15.984375 -4.31984375 -15.984375 -5.33984375 C-18.624375 -5.00984375 -21.264375 -4.67984375 -23.984375 -4.33984375 C-24.479375 -5.32984375 -24.479375 -5.32984375 -24.984375 -6.33984375 C-27.954375 -6.33984375 -30.924375 -6.33984375 -33.984375 -6.33984375 C-33.984375 -5.67984375 -33.984375 -5.01984375 -33.984375 -4.33984375 C-37.71402639 -2.30548844 -39.65342542 -1.33984375 -43.984375 -1.33984375 C-45.99933407 -0.71985634 -48.0031165 -0.06030139 -49.984375 0.66015625 C-49.984375 1.65015625 -49.984375 2.64015625 -49.984375 3.66015625 C-52.57005095 7.58655307 -54.60622238 9.12780283 -58.984375 10.66015625 C-60.34802783 11.61839878 -61.69231669 12.607368 -62.984375 13.66015625 C-62.654375 14.32015625 -62.324375 14.98015625 -61.984375 15.66015625 C-62.644375 15.99015625 -63.304375 16.32015625 -63.984375 16.66015625 C-63.95095652 19.16350387 -63.88336781 21.65851803 -63.796875 24.16015625 C-63.79107422 24.85625 -63.78527344 25.55234375 -63.77929688 26.26953125 C-63.46496401 33.81352007 -60.00794255 38.84231398 -54.71484375 44.0390625 C-53.54265073 45.1099691 -52.36140615 46.17104175 -51.171875 47.22265625 C-50.54804932 47.78782959 -49.92422363 48.35300293 -49.28149414 48.93530273 C-45.59271664 52.26677644 -41.86068873 55.54954719 -38.09765625 58.796875 C-35.22485749 61.32982326 -32.41878552 63.93229631 -29.609375 66.53515625 C-20.74907899 75.28977229 -20.74907899 75.28977229 -11.02436638 82.92326069 C-7.52066714 85.40602419 -5.32919368 87.31685696 -4.2391243 91.56340599 C-3.95596082 95.22415709 -3.92645217 98.8116557 -3.98095703 102.4831543 C-3.97338188 103.88343982 -3.96237452 105.28371032 -3.94821167 106.6839447 C-3.92036418 110.47411264 -3.94259777 114.26245822 -3.9756341 118.05252433 C-4.00343718 122.03208402 -3.99040241 126.01154326 -3.98336792 129.99116516 C-3.97796838 136.67857017 -4.00486155 143.36525638 -4.05126953 150.05249023 C-4.10437908 157.75818437 -4.10801717 165.46267303 -4.0844928 173.16848725 C-4.06284012 180.60580999 -4.07539359 188.0427013 -4.10360336 195.47999001 C-4.11505067 198.63247828 -4.11501534 201.78464703 -4.10547256 204.93713951 C-4.09584025 208.66164435 -4.11650822 212.38485135 -4.15938187 216.10910988 C-4.1756039 218.10815887 -4.16291336 220.10737901 -4.14898682 222.10644531 C-4.32521924 232.94249975 -7.40942893 241.48684989 -15.234375 249.16015625 C-23.95075546 256.09856856 -33.05672496 258.02470357 -44.03759766 256.97802734 C-52.35512849 255.6199354 -59.97966188 250.3284472 -64.984375 243.66015625 C-69.10188083 236.92816053 -70.13355945 231.32545709 -70.12481689 223.46383667 C-70.12778802 222.63034639 -70.13075914 221.79685612 -70.1338203 220.93810856 C-70.14250255 218.14085781 -70.14401516 215.34364988 -70.14550781 212.54638672 C-70.1501364 210.54234221 -70.15516111 208.53829858 -70.16055298 206.53425598 C-70.1736769 201.0856484 -70.18012217 195.63705314 -70.18456364 190.18843222 C-70.18749496 186.78319349 -70.19159994 183.37795813 -70.19606781 179.9727211 C-70.20974402 169.31535224 -70.21940952 158.65799107 -70.2232697 148.00061405 C-70.22774795 135.70465547 -70.24528458 123.40880819 -70.2742703 111.11288345 C-70.29590351 101.60529188 -70.3059749 92.09773158 -70.30731082 82.59011567 C-70.30835786 76.91348691 -70.31424407 71.23696276 -70.33213043 65.56035995 C-70.34863892 60.21696963 -70.35075307 54.87376223 -70.34199142 49.53035545 C-70.34122248 47.57367779 -70.34554482 45.61699019 -70.35544968 43.66033745 C-70.41823451 30.479964 -70.01964263 19.66547983 -61.984375 8.66015625 C-61.56542969 8.06460937 -61.14648438 7.4690625 -60.71484375 6.85546875 C-45.96851692 -12.26800985 -18.7432458 -13.18095163 0 0 Z " transform="translate(415.984375,335.33984375)" style="fill: #C054C5;"/>
    <path d="M0 0 C1.26131641 0.85860696 2.51220264 1.73282138 3.75 2.625 C4.78125 3.346875 5.8125 4.06875 6.875 4.8125 C10.90966148 8.30847371 13.29073173 12.95962343 15.75 17.625 C16.10578125 18.23988281 16.4615625 18.85476563 16.828125 19.48828125 C20.09081231 26.17679024 19.66303395 34.60295078 17.75 41.625 C14.39488622 44.84520536 10.44706125 46.625 5.75 46.625 C5.42 47.615 5.09 48.605 4.75 49.625 C4.09 49.625 3.43 49.625 2.75 49.625 C2.75 50.285 2.75 50.945 2.75 51.625 C1.17578125 53.17578125 1.17578125 53.17578125 -0.9375 54.9375 C-3.34857764 56.98416169 -5.6357369 59.0107369 -7.875 61.25 C-15.25 68.625 -15.25 68.625 -18.25 68.625 C-18.25 69.285 -18.25 69.945 -18.25 70.625 C-20.5625 73.25 -20.5625 73.25 -23.25 75.625 C-24.24 75.625 -25.23 75.625 -26.25 75.625 C-26.4975 76.24375 -26.745 76.8625 -27 77.5 C-28.45628639 79.97568687 -29.62812506 80.57625002 -32.25 81.625 C-32.25 82.285 -32.25 82.945 -32.25 83.625 C-33.68359375 85.03515625 -33.68359375 85.03515625 -35.6875 86.6875 C-38.85757217 89.37674994 -41.83581525 92.16013377 -44.75 95.125 C-48.0416161 98.455802 -51.42290276 101.58213326 -54.97265625 104.6328125 C-57.84126862 107.14223327 -60.64095257 109.72351689 -63.4375 112.3125 C-64.26713257 113.08037842 -64.26713257 113.08037842 -65.11352539 113.86376953 C-66.25304979 114.91929106 -67.39228802 115.97512162 -68.53125 117.03125 C-72.40347808 120.62186149 -76.27918351 124.20857312 -80.16796875 127.78125 C-82.16725175 129.61886759 -84.14369809 131.47358646 -86.11328125 133.34375 C-86.98339844 134.1584375 -87.85351562 134.973125 -88.75 135.8125 C-89.5028125 136.52792969 -90.255625 137.24335938 -91.03125 137.98046875 C-93.59983262 139.88429495 -95.04237986 140.61008084 -98.25 140.625 C-100.64453125 139 -100.64453125 139 -103.0625 136.625 C-106.00785221 133.78054892 -108.95736483 130.98283102 -112.05078125 128.30078125 C-116.33990004 124.57255885 -120.49336659 120.71378362 -124.625 116.8125 C-125.36161865 116.11833984 -126.0982373 115.42417969 -126.85717773 114.70898438 C-132.42357195 109.44616724 -137.8924106 104.1010619 -143.25 98.625 C-141.81550316 93.00565522 -137.69668024 89.9343271 -133.5625 86.1875 C-132.799375 85.48302734 -132.03625 84.77855469 -131.25 84.05273438 C-129.67701328 82.60104763 -128.10098708 81.15264757 -126.52197266 79.70751953 C-123.24355398 76.70247856 -119.99733446 73.66353651 -116.75 70.625 C-115.52091085 69.47908352 -114.29174326 68.33325116 -113.0625 67.1875 C-108.94649285 63.34589333 -104.84776572 59.48604496 -100.75 55.625 C-94.79526838 50.01457358 -88.82575275 44.4205272 -82.84155273 38.84155273 C-78.99646976 35.25636184 -75.15571925 31.66663669 -71.32104492 28.0703125 C-69.98634589 26.81916397 -68.65057715 25.56915556 -67.3137207 24.3203125 C-63.86098302 21.09164753 -60.43185552 17.84232205 -57.03515625 14.5546875 C-43.46724729 1.4866572 -43.46724729 1.4866572 -35.25 -2.375 C-34.61449219 -2.70757812 -33.97898437 -3.04015625 -33.32421875 -3.3828125 C-22.73810326 -8.24848049 -9.68225535 -5.80203203 0 0 Z " transform="translate(682.25,332.375)" style="fill: #785BDF;"/>
    <path d="M0 0 C0.76441406 -0.00773438 1.52882813 -0.01546875 2.31640625 -0.0234375 C14.39237674 0.01756749 24.41924184 4.08739737 33 12.625 C41.44486828 21.37410955 45.22293877 30.63070595 45.4375 42.875 C45.07687263 55.12190549 41.49242043 65.9698317 33 75.125 C22.96794378 84.43082993 10.92130111 87.82428485 -2.47265625 87.55859375 C-14.60819899 86.45789584 -24.4602809 81.25685804 -32.6875 72.375 C-41.37399527 61.7422381 -44.12662648 50.8927286 -42.875 37.25 C-40.54167029 25.68941187 -35.19183646 15.65387384 -25.875 8.25 C-17.38759009 2.88041414 -10.04083405 -0.10057597 0 0 Z " transform="translate(715.875,662.75)" style="fill: #28374A;"/>
    <path d="M0 0 C51.19791667 0 51.19791667 0 65.1796875 12.90625 C68.5756565 16.81234309 70.83530794 21.32591968 73 26 C73.37640625 26.72703125 73.7528125 27.4540625 74.140625 28.203125 C77.0955847 37.82017567 76.37313192 51.67677446 72.2578125 60.78515625 C70.13672719 64.52011083 67.89174175 67.8177328 65 71 C64.44828125 71.61746094 63.8965625 72.23492188 63.328125 72.87109375 C57.55715723 78.60506813 50.60967917 80.66004783 43 83 C42.01 83.33 41.02 83.66 40 84 C26.8 84 13.6 84 0 84 C0 56.28 0 28.56 0 0 Z " transform="translate(406,664)" style="fill: #27364A;"/>
    <path d="M0 0 C6.27 0 12.54 0 19 0 C19.70382813 1.2375 20.40765625 2.475 21.1328125 3.75 C24.41101319 9.5062372 27.70361144 15.25416281 31 21 C31.63035156 22.10021484 32.26070312 23.20042969 32.91015625 24.33398438 C34.80913177 27.64280535 36.71599032 30.94696003 38.625 34.25 C39.22844238 35.30316406 39.83188477 36.35632813 40.45361328 37.44140625 C41.01806152 38.41464844 41.58250977 39.38789062 42.1640625 40.390625 C42.66373535 41.25719727 43.1634082 42.12376953 43.67822266 43.01660156 C44.85136386 45.13246815 44.85136386 45.13246815 47 46 C47.4029126 44.93265625 47.4029126 44.93265625 47.81396484 43.84375 C49.02894575 40.93059694 50.43553438 38.25389621 51.9765625 35.5 C52.56155518 34.45344238 53.14654785 33.40688477 53.74926758 32.32861328 C54.36825928 31.2301709 54.98725098 30.13172852 55.625 29 C56.25365967 27.87964355 56.88231934 26.75928711 57.5300293 25.60498047 C61.4124842 18.71806046 65.38789355 11.91958664 69.64453125 5.2578125 C71.13248349 2.96451416 71.13248349 2.96451416 72 0 C78.27 0 84.54 0 91 0 C91 27.72 91 55.44 91 84 C85.72 84 80.44 84 75 84 C74.67 65.52 74.34 47.04 74 28 C62.16681011 48.28460875 62.16681011 48.28460875 51 69 C47.37 69 43.74 69 40 69 C37.25338772 63.99975713 34.51399404 59.00120269 31.87890625 53.94140625 C31.50628662 53.22847412 31.13366699 52.51554199 30.74975586 51.78100586 C30.02917816 50.39975523 29.31220368 49.01661525 28.59985352 47.63110352 C25.04819732 40.83595554 21.05701586 34.59265077 17 28 C16.67 46.48 16.34 64.96 16 84 C10.72 84 5.44 84 0 84 C0 56.28 0 28.56 0 0 Z " transform="translate(222,664)" style="fill: #29374B;"/>
    <path d="M0 0 C46.41176471 0 46.41176471 0 56.6875 8.125 C62.17467398 14.94689197 64.85300088 21.19743113 64.41015625 30.04296875 C63.28131969 38.18134278 60.35697829 43.43396466 54.09765625 48.72265625 C51.72979003 50.16454127 49.7288979 50.61558134 47 51 C51.76314217 59.40258531 56.84191875 67.56611217 62.08691406 75.67504883 C62.59319336 76.46548584 63.09947266 77.25592285 63.62109375 78.0703125 C64.0792749 78.77945801 64.53745605 79.48860352 65.00952148 80.21923828 C66 82 66 82 66 84 C59.73 84 53.46 84 47 84 C46.09636719 82.32550781 45.19273437 80.65101563 44.26171875 78.92578125 C43.07037254 76.72132172 41.87896297 74.51689643 40.6875 72.3125 C40.09259766 71.20970703 39.49769531 70.10691406 38.88476562 68.97070312 C38.30791016 67.90400391 37.73105469 66.83730469 37.13671875 65.73828125 C36.60780029 64.75899658 36.07888184 63.77971191 35.53393555 62.77075195 C35.02773682 61.85640381 34.52153809 60.94205566 34 60 C33.51402344 59.07123047 33.02804687 58.14246094 32.52734375 57.18554688 C31.08809858 54.58848867 31.08809858 54.58848867 27.42578125 54.29296875 C26.05573249 54.22893406 24.68399072 54.1996345 23.3125 54.1875 C20.899375 54.125625 18.48625 54.06375 16 54 C16 63.9 16 73.8 16 84 C10.72 84 5.44 84 0 84 C0 56.28 0 28.56 0 0 Z " transform="translate(775,664)" style="fill: #29374A;"/>
    <path d="M0 0 C5.61 0 11.22 0 17 0 C17.58007812 1.42570313 18.16015625 2.85140625 18.7578125 4.3203125 C22.60446824 13.75865193 26.45527458 23.19023098 30.515625 32.5390625 C34.6161001 42.09964391 38.53116384 51.73465894 42.39428711 61.39306641 C43.19522885 63.39431142 43.99894363 65.3944291 44.80273438 67.39453125 C45.32048084 68.6874326 45.83806493 69.98039899 46.35546875 71.2734375 C47.04612427 72.99699463 47.04612427 72.99699463 47.75073242 74.75537109 C48.92437198 77.80357703 49.967092 80.90127601 51 84 C45.06 84 39.12 84 33 84 C30.69 78.06 28.38 72.12 26 66 C14.12 65.67 2.24 65.34 -10 65 C-10.99 68.3 -11.98 71.6 -13 75 C-13.97045419 78.01120354 -14.98499606 81.00332169 -16 84 C-21.94 84 -27.88 84 -34 84 C-32.08676268 77.95819793 -29.86410314 72.14994053 -27.390625 66.31640625 C-25.36478169 61.48511139 -23.44996833 56.61141558 -21.52734375 51.73828125 C-20.48667002 49.14602643 -19.37787903 46.59570134 -18.2265625 44.05078125 C-15.10063969 37.07551415 -12.29810289 29.96198537 -9.4375 22.875 C-8.56852863 20.7247133 -7.69910049 18.57461374 -6.82887268 16.42483521 C-6.29156945 15.09725509 -5.75500537 13.76937547 -5.21934509 12.44113159 C-3.53181896 8.26837346 -1.77387796 4.13904858 0 0 Z " transform="translate(558,664)" style="fill: #28364A;"/>
    <path d="M0 0 C19.14 0 38.28 0 58 0 C58 4.95 58 9.9 58 15 C44.14 15 30.28 15 16 15 C16 21.6 16 28.2 16 35 C28.21 35 40.42 35 53 35 C53 39.62 53 44.24 53 49 C40.79 49 28.58 49 16 49 C16 55.93 16 62.86 16 70 C29.86 70 43.72 70 58 70 C58 74.62 58 79.24 58 84 C38.86 84 19.72 84 0 84 C0 56.28 0 28.56 0 0 Z " transform="translate(332,664)" style="fill: #263649;"/>
    <path d="M0 0 C0.99 0.598125 1.98 1.19625 3 1.8125 C3.59039063 2.1528125 4.18078125 2.493125 4.7890625 2.84375 C10.79332572 6.62515832 13.81802014 11.71683845 16.3125 18.25 C18.07400898 27.37781926 16.60891945 35.21346972 13 43.8125 C10.5466872 47.36592992 8.05788572 49.73467162 4.4375 52.0625 C3.67308594 52.56265625 2.90867187 53.0628125 2.12109375 53.578125 C-4.31323192 57.32259445 -13.57944495 56.75657236 -20.70703125 55.234375 C-27.94434981 52.44591601 -33.69768163 46.2095588 -37 39.25 C-39.33566508 31.64763915 -39.3843677 21.14257329 -36.4375 13.75 C-33.09930757 7.61241112 -27.90227973 2.37368669 -21.50390625 -0.53125 C-14.89321805 -2.26384847 -6.44687321 -2.54366426 0 0 Z " transform="translate(728,679.1875)" style="fill: #FBFBFB;"/>
    <path d="M0 0 C22.44 0 44.88 0 68 0 C68 4.95 68 9.9 68 15 C59.42 15 50.84 15 42 15 C42 37.77 42 60.54 42 84 C36.72 84 31.44 84 26 84 C26 61.23 26 38.46 26 15 C17.42 15 8.84 15 0 15 C0 10.05 0 5.1 0 0 Z " transform="translate(602,664)" style="fill: #293849;"/>
    <path d="M0 0 C27.1372549 0 27.1372549 0 35.875 7.1875 C42.21452227 14.29136183 43.70075927 21.11548121 43.375 30.5625 C42.59023414 37.75618707 40.52186012 42.96566921 35.1875 47.9375 C24.37575834 56.47837399 14.08543369 55 0 55 C0 36.85 0 18.7 0 0 Z " transform="translate(422,679)" style="fill: #FAFAFA;"/>
    <path d="M0 0 C5.61 0 11.22 0 17 0 C17 27.72 17 55.44 17 84 C11.39 84 5.78 84 0 84 C0 56.28 0 28.56 0 0 Z " transform="translate(496,664)" style="fill: #2F3C4D;"/>
    <path d="M0 0 C3.650625 -0.103125 7.30125 -0.20625 11.0625 -0.3125 C12.76805054 -0.38078003 12.76805054 -0.38078003 14.50805664 -0.45043945 C21.37763968 -0.54404696 24.91415143 0.29506103 30 5 C31.84605224 8.69210448 31.34397156 12.96151909 31 17 C29.69367338 20.41096395 28.60493449 21.59343689 25.59375 23.6171875 C20.5516611 25.55729562 15.96951951 25.32093586 10.625 25.1875 C5.365625 25.0946875 5.365625 25.0946875 0 25 C0 16.75 0 8.5 0 0 Z " transform="translate(791,679)" style="fill: #F9F9F9;"/>
    <path d="M0 0 C3.12883232 2.57704213 5.5254072 5.46756932 8.015625 8.66015625 C6.695625 8.66015625 5.375625 8.66015625 4.015625 8.66015625 C3.520625 7.67015625 3.520625 7.67015625 3.015625 6.66015625 C1.16590804 5.60994522 1.16590804 5.60994522 -0.984375 4.66015625 C-2.31770833 3.99348958 -3.65104167 3.32682292 -4.984375 2.66015625 C-4.984375 2.00015625 -4.984375 1.34015625 -4.984375 0.66015625 C-5.974375 0.99015625 -6.964375 1.32015625 -7.984375 1.66015625 C-7.984375 1.00015625 -7.984375 0.34015625 -7.984375 -0.33984375 C-10.459375 -0.83484375 -10.459375 -0.83484375 -12.984375 -1.33984375 C-12.984375 -1.99984375 -12.984375 -2.65984375 -12.984375 -3.33984375 C-13.974375 -3.00984375 -14.964375 -2.67984375 -15.984375 -2.33984375 C-15.984375 -3.32984375 -15.984375 -4.31984375 -15.984375 -5.33984375 C-18.624375 -5.00984375 -21.264375 -4.67984375 -23.984375 -4.33984375 C-24.479375 -5.32984375 -24.479375 -5.32984375 -24.984375 -6.33984375 C-27.954375 -6.33984375 -30.924375 -6.33984375 -33.984375 -6.33984375 C-33.984375 -5.67984375 -33.984375 -5.01984375 -33.984375 -4.33984375 C-37.71402639 -2.30548844 -39.65342542 -1.33984375 -43.984375 -1.33984375 C-45.99933407 -0.71985634 -48.0031165 -0.06030139 -49.984375 0.66015625 C-49.984375 1.65015625 -49.984375 2.64015625 -49.984375 3.66015625 C-52.57005095 7.58655307 -54.60622238 9.12780283 -58.984375 10.66015625 C-60.34802783 11.61839878 -61.69231669 12.607368 -62.984375 13.66015625 C-62.654375 14.32015625 -62.324375 14.98015625 -61.984375 15.66015625 C-62.603125 16.13453125 -63.221875 16.60890625 -63.859375 17.09765625 C-68.48402053 22.67443469 -68.27752554 30.55432413 -68.22488403 37.52503967 C-68.22659288 38.36985773 -68.22830173 39.21467579 -68.23006237 40.08509439 C-68.23333277 42.89023313 -68.22239429 45.69512778 -68.21142578 48.50024414 C-68.21086114 50.52125035 -68.21117927 52.54225697 -68.21231079 54.56326294 C-68.21288322 60.03160007 -68.20114657 65.49984896 -68.18716288 70.96816564 C-68.17463732 76.68966423 -68.17348358 82.41116498 -68.17111206 88.13267517 C-68.16490266 98.9590561 -68.14849913 109.7853965 -68.12841308 120.6117596 C-68.10603729 132.94062772 -68.09505642 145.26949779 -68.08502221 157.59838116 C-68.06413244 182.95232863 -68.02896695 208.30624017 -67.984375 233.66015625 C-67.324375 233.66015625 -66.664375 233.66015625 -65.984375 233.66015625 C-66.314375 232.34015625 -66.644375 231.02015625 -66.984375 229.66015625 C-64.9591747 231.06899124 -64.07403513 232.16403684 -63.6328125 234.60546875 C-63.52839844 235.68441406 -63.52839844 235.68441406 -63.421875 236.78515625 C-63.2775 238.06390625 -63.133125 239.34265625 -62.984375 240.66015625 C-62.324375 240.99015625 -61.664375 241.32015625 -60.984375 241.66015625 C-58.984375 243.66015625 -58.984375 243.66015625 -58.859375 246.28515625 C-58.900625 247.06890625 -58.941875 247.85265625 -58.984375 248.66015625 C-65.0519675 244.24736171 -68.54795317 239.10270768 -69.984375 231.66015625 C-70.08263155 228.91955772 -70.12786457 226.20441729 -70.12481689 223.46383667 C-70.12778802 222.63034639 -70.13075914 221.79685612 -70.1338203 220.93810856 C-70.14250255 218.14085781 -70.14401516 215.34364988 -70.14550781 212.54638672 C-70.1501364 210.54234221 -70.15516111 208.53829858 -70.16055298 206.53425598 C-70.1736769 201.0856484 -70.18012217 195.63705314 -70.18456364 190.18843222 C-70.18749496 186.78319349 -70.19159994 183.37795813 -70.19606781 179.9727211 C-70.20974402 169.31535224 -70.21940952 158.65799107 -70.2232697 148.00061405 C-70.22774795 135.70465547 -70.24528458 123.40880819 -70.2742703 111.11288345 C-70.29590351 101.60529188 -70.3059749 92.09773158 -70.30731082 82.59011567 C-70.30835786 76.91348691 -70.31424407 71.23696276 -70.33213043 65.56035995 C-70.34863892 60.21696963 -70.35075307 54.87376223 -70.34199142 49.53035545 C-70.34122248 47.57367779 -70.34554482 45.61699019 -70.35544968 43.66033745 C-70.41823451 30.479964 -70.01964263 19.66547983 -61.984375 8.66015625 C-61.56542969 8.06460937 -61.14648438 7.4690625 -60.71484375 6.85546875 C-45.96851692 -12.26800985 -18.7432458 -13.18095163 0 0 Z " transform="translate(415.984375,335.33984375)" style="fill: #AC4DAF;"/>
    <path d="M0 0 C5.19154497 3.64512732 9.7756403 7.56568242 14.18359375 12.12890625 C15.65127478 13.64077552 17.19087826 15.0826166 18.75 16.5 C24.60876118 23.00973464 25.67332934 28.79970017 25.375 37.53515625 C24.37180624 46.80424864 20.11425172 53.99699211 13 60 C1.63162264 66.85848875 -8.94401862 68.32839913 -21.95703125 66.609375 C-31.29493576 64.25604204 -39.41544966 57.70282805 -45 50 C-42.36 50 -39.72 50 -37 50 C-36 52 -36 52 -37 55 C-36.34 55 -35.68 55 -35 55 C-35 55.66 -35 56.32 -35 57 C-31.27569643 57.69289369 -27.78916254 58.11144596 -24 58 C-24.33 59.32 -24.66 60.64 -25 62 C-24.34 62.33 -23.68 62.66 -23 63 C-23 63.66 -23 64.32 -23 65 C-20.60385425 64.85834107 -18.20817103 64.71181159 -15.8125 64.5625 C-15.13896484 64.52318359 -14.46542969 64.48386719 -13.77148438 64.44335938 C-10.09616086 64.21029008 -6.59898515 63.76070912 -3 63 C-2.01 63 -1.02 63 0 63 C-0.33 62.01 -0.66 61.02 -1 60 C-0.01 59.34 0.98 58.68 2 58 C2.99 58.495 2.99 58.495 4 59 C4.66 58.67 5.32 58.34 6 58 C7.66619446 57.9603287 9.33391013 57.95615553 11 58 C11.28875 57.236875 11.5775 56.47375 11.875 55.6875 C13 53 13 53 15 50 C15.99 49.67 16.98 49.34 18 49 C19.43954532 44.68136403 18.96706534 40.5501608 18.83984375 36.03125 C19 33 19 33 21 30 C20.71725862 26.68913741 20.71725862 26.68913741 19 24 C18.95919217 22.00041636 18.95745644 19.99954746 19 18 C17.906875 17.979375 16.81375 17.95875 15.6875 17.9375 C12 17 12 17 10.8671875 15.375 C10.0625 13.4375 10.0625 13.4375 9 10 C8.01 10 7.02 10 6 10 C6 9.34 6 8.68 6 8 C3.50935112 7.31292445 1.62113708 7 -1 7 C-1.04254356 5.00045254 -1.04080783 2.99958364 -1 1 C-0.67 0.67 -0.34 0.34 0 0 Z " transform="translate(581,486)" style="fill: #4C7EDE;"/>
    <path d="M0 0 C2.59022019 3.12173936 3.97647949 6.14084533 5.375 9.9375 C5.79910156 11.07703125 6.22320313 12.2165625 6.66015625 13.390625 C7.10230469 14.58171875 7.54445313 15.7728125 8 17 C9.35646551 20.47432582 10.7178548 23.94666436 12.08203125 27.41796875 C13 30 13 30 13 32 C4.75 32 -3.5 32 -12 32 C-11.22451366 27.34708197 -10.71393632 24.97759255 -8.75 21 C-6.08444632 15.37444195 -4.03105393 9.65389785 -2.015625 3.7734375 C-1 1 -1 1 0 0 Z " transform="translate(566,684)" style="fill: #F4F5F6;"/>
    <path d="M0 0 C3.40013186 0.5765441 4.92670485 1.60997661 7.25 4.125 C9.62449718 6.60469642 12.02006744 8.95077521 14.625 11.1875 C18.28144112 14.34082616 21.83480349 17.59276653 25.375 20.875 C30.87152174 25.96791165 36.41655118 31.00235564 42 36 C47.66019264 41.06633637 53.28850099 46.16508021 58.875 51.3125 C59.42260986 51.81628174 59.97021973 52.32006348 60.53442383 52.83911133 C63.41773029 55.50182238 66.24809124 58.20156139 69 61 C68.01 62.32 67.02 63.64 66 65 C63.65941363 62.87219421 62.29299694 60.88437779 61 58 C59.02 58.495 59.02 58.495 57 59 C56 56 56 56 55.6875 53.9375 C55.15861061 51.79878028 55.15861061 51.79878028 52.9375 50.75 C52.298125 50.5025 51.65875 50.255 51 50 C51.495 49.01 51.495 49.01 52 48 C51.01 48.33 50.02 48.66 49 49 C48.34 47.68 47.68 46.36 47 45 C44.03 45.495 44.03 45.495 41 46 C40.34 43.03 39.68 40.06 39 37 C37.35 37.66 35.7 38.32 34 39 C34 37.68 34 36.36 34 35 C33.01 35.495 33.01 35.495 32 36 C32 34.35 32 32.7 32 31 C31.34 30.67 30.68 30.34 30 30 C29.67 30.33 29.34 30.66 29 31 C27.32457024 30.71395102 25.65614657 30.38218767 24 30 C24.33 27.69 24.66 25.38 25 23 C23.02 23 21.04 23 19 23 C18.89171875 22.42507813 18.7834375 21.85015625 18.671875 21.2578125 C17.4714332 17.2237697 14.82999356 14.06240849 12 11 C10.35008418 10.29289322 8.68437744 9.62056011 7 9 C5.6296945 7.02514795 4.29327628 5.02613283 3 3 C2.01 2.67 1.02 2.34 0 2 C0 1.34 0 0.68 0 0 Z " transform="translate(512,425)" style="fill: #5D8BDD;"/>
    <path d="M0 0 C4.455 0.99 4.455 0.99 9 2 C9.33 3.32 9.66 4.64 10 6 C10.66 6.33 11.32 6.66 12 7 C12 7.66 12 8.32 12 9 C13.32 9.33 14.64 9.66 16 10 C16 10.99 16 11.98 16 13 C16.99 13.33 17.98 13.66 19 14 C18.67 13.01 18.34 12.02 18 11 C19.32 10.67 20.64 10.34 22 10 C22.268125 11.134375 22.53625 12.26875 22.8125 13.4375 C23.204375 14.613125 23.59625 15.78875 24 17 C24.99 17.33 25.98 17.66 27 18 C27.33333333 19.33333333 27.66666667 20.66666667 28 22 C28.99 22.33 29.98 22.66 31 23 C31.66 23.66 32.32 24.32 33 25 C35.57061311 25.64767793 35.57061311 25.64767793 38 26 C37.34 27.32 36.68 28.64 36 30 C36.99 30.33 37.98 30.66 39 31 C39.639375 31.53625 40.27875 32.0725 40.9375 32.625 C42.90580583 34.26684374 42.90580583 34.26684374 45.25 33.6875 C45.8275 33.460625 46.405 33.23375 47 33 C46.979375 33.763125 46.95875 34.52625 46.9375 35.3125 C46.87057159 38.10185786 46.87057159 38.10185786 48 41 C49.65 41.33 51.3 41.66 53 42 C52.01 42.66 51.02 43.32 50 44 C50.99 44 51.98 44 53 44 C53.66 45.65 54.32 47.3 55 49 C50.85310018 47.33922701 47.93283833 44.34019055 44.75 41.3125 C43.58274649 40.21798673 42.41478071 39.12423255 41.24609375 38.03125 C40.68519043 37.5053125 40.12428711 36.979375 39.54638672 36.4375 C37.0681716 34.13378503 34.51538061 31.92067669 31.95703125 29.70703125 C29.6144085 27.66366569 27.30726578 25.58319141 25 23.5 C22.06321535 20.84886006 19.11397458 18.21709829 16.125 15.625 C12.54422119 12.50102837 9.01479316 9.32279278 5.5 6.125 C4.95875488 5.63596191 4.41750977 5.14692383 3.85986328 4.64306641 C2.55375699 3.44969329 1.27415154 2.22743265 0 1 C0 0.67 0 0.34 0 0 Z " transform="translate(481,487)" style="fill: #5B8AD5;"/>
    <path d="M0 0 C5.17806002 3.19770925 8.81417887 6.85902339 12.546875 11.64453125 C11.226875 11.64453125 9.906875 11.64453125 8.546875 11.64453125 C8.051875 10.65453125 8.051875 10.65453125 7.546875 9.64453125 C5.69715804 8.59432022 5.69715804 8.59432022 3.546875 7.64453125 C2.21354167 6.97786458 0.88020833 6.31119792 -0.453125 5.64453125 C-0.453125 4.98453125 -0.453125 4.32453125 -0.453125 3.64453125 C-1.443125 3.97453125 -2.433125 4.30453125 -3.453125 4.64453125 C-3.453125 3.98453125 -3.453125 3.32453125 -3.453125 2.64453125 C-5.928125 2.14953125 -5.928125 2.14953125 -8.453125 1.64453125 C-8.453125 0.98453125 -8.453125 0.32453125 -8.453125 -0.35546875 C-9.443125 -0.02546875 -10.433125 0.30453125 -11.453125 0.64453125 C-11.453125 -0.34546875 -11.453125 -1.33546875 -11.453125 -2.35546875 C-14.093125 -2.02546875 -16.733125 -1.69546875 -19.453125 -1.35546875 C-19.948125 -2.34546875 -19.948125 -2.34546875 -20.453125 -3.35546875 C-23.423125 -3.35546875 -26.393125 -3.35546875 -29.453125 -3.35546875 C-29.453125 -2.69546875 -29.453125 -2.03546875 -29.453125 -1.35546875 C-33.18277639 0.67888656 -35.12217542 1.64453125 -39.453125 1.64453125 C-41.46808407 2.26451866 -43.4718665 2.92407361 -45.453125 3.64453125 C-45.453125 4.63453125 -45.453125 5.62453125 -45.453125 6.64453125 C-47.981561 10.48400813 -50.0501163 12.29916748 -54.453125 13.64453125 C-54.783125 11.99453125 -55.113125 10.34453125 -55.453125 8.64453125 C-40.09620694 -6.24052619 -19.06235617 -10.53286241 0 0 Z " transform="translate(411.453125,332.35546875)" style="fill: #BD65C3;"/>
    <path d="M0 0 C36 0 36 0 39 2 C26.79 2 14.58 2 2 2 C2 29.06 2 56.12 2 84 C1.34 84 0.68 84 0 84 C0 56.28 0 28.56 0 0 Z " transform="translate(406,664)" style="fill: #313944;"/>
    <path d="M0 0 C19.14 0 38.28 0 58 0 C58 4.95 58 9.9 58 15 C57.34 15 56.68 15 56 15 C56 10.71 56 6.42 56 2 C37.85 2 19.7 2 1 2 C1 25.43 1 48.86 1 73 C0.67 73 0.34 73 0 73 C0 48.91 0 24.82 0 0 Z " transform="translate(332,664)" style="fill: #363D47;"/>
    <path d="M0 0 C6.27 0 12.54 0 19 0 C19 27.72 19 55.44 19 84 C18.34 84 17.68 84 17 84 C17 56.94 17 29.88 17 2 C11.72 2 6.44 2 1 2 C0.67 2.99 0.34 3.98 0 5 C-1 3 -1 3 0 0 Z " transform="translate(294,664)" style="fill: #37404D;"/>
    <path d="M0 0 C1.41287081 0.95203214 2.82550333 1.90441954 4.23702431 2.85845184 C5.90755233 3.94013901 7.6457409 4.91517506 9.38505554 5.88238525 C14.61583749 9.2355413 18.27022661 12.88623742 19.72131729 19.0776825 C20.78567881 27.9839391 20.53519367 36.94091279 20.31812119 45.89065838 C20.23628219 49.83812998 20.22917393 53.78575871 20.21379089 57.73394775 C20.17354817 65.19335295 20.06710468 72.65025092 19.93624753 80.10855699 C19.7904195 88.6065038 19.71933582 97.10457696 19.65420687 105.60346556 C19.51869542 123.07042204 19.29036945 140.5349451 19 158 C18.67 158 18.34 158 18 158 C17.99576806 157.28032106 17.99153612 156.56064213 17.98717594 155.81915474 C17.88397754 138.32687337 17.77535615 120.83463416 17.66066074 103.34242439 C17.60532694 94.88340779 17.55184469 86.42438696 17.50268555 77.96533203 C17.45984562 70.59445857 17.41356813 63.22361619 17.36312145 55.85279071 C17.33651896 51.94816683 17.31166585 48.04354911 17.29092598 44.13888931 C17.27136663 40.46669471 17.24722499 36.79455927 17.21950912 33.12241745 C17.20565193 31.12610617 17.19670684 29.12976271 17.18788147 27.13342285 C17.17809265 25.95269196 17.16830383 24.77196106 17.15821838 23.55545044 C17.15176583 22.52488588 17.14531328 21.49432133 17.1386652 20.43252754 C17.16039433 17.99113453 17.16039433 17.99113453 16 16 C15.01 15.67 14.02 15.34 13 15 C11 13 11 13 10 10 C9.34 10 8.68 10 8 10 C7.67 9.34 7.34 8.68 7 8 C6.01 7.34 5.02 6.68 4 6 C2.04783565 4.04783565 1.15173355 2.46800047 0 0 Z " transform="translate(392,408)" style="fill: #8F3DA2;"/>
    <path d="M0 0 C0.33 0 0.66 0 1 0 C1 25.74 1 51.48 1 78 C17.5 78 34 78 51 78 C51 78.33 51 78.66 51 79 C46.32683792 79.14575769 41.65358434 79.28796908 36.98022461 79.42724609 C35.3988166 79.47483365 33.81743474 79.52330039 32.23608398 79.57275391 C29.92959253 79.64471703 27.62301734 79.71324105 25.31640625 79.78125 C24.63856583 79.80312378 23.9607254 79.82499756 23.26234436 79.84753418 C15.16907852 80.07919485 7.10825545 80 -1 80 C-0.67 53.6 -0.34 27.2 0 0 Z " transform="translate(333,668)" style="fill: #222D40;"/>
    <path d="M0 0 C4.80901199 3.41002669 9.11302794 6.97440582 13.21484375 11.20703125 C18.14132762 16.15507523 23.61809137 20.55992538 29 25 C28.01 27.475 28.01 27.475 27 30 C23.9789286 27.9859524 22.39332574 26.36720387 21 23 C19.68 23.33 18.36 23.66 17 24 C16 21 16 21 15.6875 18.9375 C15.15861061 16.79878028 15.15861061 16.79878028 12.9375 15.75 C12.298125 15.5025 11.65875 15.255 11 15 C11.33 14.34 11.66 13.68 12 13 C11.01 13.33 10.02 13.66 9 14 C8.34 12.68 7.68 11.36 7 10 C5.02 10.33 3.04 10.66 1 11 C0.63743142 9.5437328 0.28520207 8.08488815 -0.0625 6.625 C-0.35833984 5.40683594 -0.35833984 5.40683594 -0.66015625 4.1640625 C-1 2 -1 2 0 0 Z " transform="translate(552,460)" style="fill: #548CE6;"/>
    <path d="M0 0 C1.97828976 1.78046079 3.27005492 3.43446336 4.6875 5.71484375 C7.19550364 9.51945533 10.37846465 12.40469472 13.75 15.4375 C14.37688721 16.01024658 15.00377441 16.58299316 15.6496582 17.1730957 C19.38440743 20.57513647 23.15528741 23.93421855 26.98046875 27.234375 C31.38393215 31.08421148 35.6819114 35.05498155 40 39 C39.34 39.66 38.68 40.32 38 41 C38 40.34 38 39.68 38 39 C37.01 39.33 36.02 39.66 35 40 C34.66226563 39.4946875 34.32453125 38.989375 33.9765625 38.46875 C33.53054688 37.8190625 33.08453125 37.169375 32.625 36.5 C32.18414062 35.8503125 31.74328125 35.200625 31.2890625 34.53125 C30.86367188 34.0259375 30.43828125 33.520625 30 33 C29.34 33 28.68 33 28 33 C28 32.01 28 31.02 28 30 C26.68 30.33 25.36 30.66 24 31 C23.896875 30.38125 23.79375 29.7625 23.6875 29.125 C23.12474627 26.63473516 23.12474627 26.63473516 20 25 C20 24.34 20 23.68 20 23 C19.38125 22.71125 18.7625 22.4225 18.125 22.125 C16 21 16 21 14 19 C11.16799705 17.3899227 11.16799705 17.3899227 8 17 C7.896875 16.360625 7.79375 15.72125 7.6875 15.0625 C7.460625 14.381875 7.23375 13.70125 7 13 C6.01 12.67 5.02 12.34 4 12 C2.8125 8.9375 2.8125 8.9375 2 6 C1.01 6.495 1.01 6.495 0 7 C0 4.69 0 2.38 0 0 Z " transform="translate(351,367)" style="fill: #B938A0;"/>
    <path d="M0 0 C0.99 0.33 1.98 0.66 3 1 C-3.98393695 7.74386412 -9.72614609 10.14216035 -19.4375 10.375 C-28.87765218 10.15917147 -35.13053857 8.51718136 -42 2 C-38.25838897 2 -34.71046443 2.51338171 -31 3 C-31.99 3.495 -31.99 3.495 -33 4 C-33 4.99 -33 5.98 -33 7 C-30.75135275 7.22245975 -28.50097377 7.42746557 -26.25 7.625 C-24.99703125 7.74101563 -23.7440625 7.85703125 -22.453125 7.9765625 C-19.12321188 7.99916372 -17.65137134 7.92038579 -15 6 C-14.34 5.01 -13.68 4.02 -13 3 C-8.98305814 1.99576453 -5.12575173 1.90176782 -1 2 C-0.67 1.34 -0.34 0.68 0 0 Z " transform="translate(689,582)" style="fill: #7450CB;"/>
    <path d="M0 0 C3.16331182 1.40708747 5.37275135 3.09033879 7.86328125 5.484375 C8.58580078 6.17273438 9.30832031 6.86109375 10.05273438 7.5703125 C10.79845703 8.28960937 11.54417969 9.00890625 12.3125 9.75 C13.78629923 11.16298399 15.26154275 12.57446318 16.73828125 13.984375 C17.45056885 14.6654834 18.16285645 15.3465918 18.89672852 16.04833984 C21.40531204 18.3760957 24.01258856 20.55722306 26.68261719 22.69677734 C28.5896178 24.58328018 28.92271885 26.3724409 29 29 C28.01 29.33 27.02 29.66 26 30 C26 29.01 26 28.02 26 27 C25.01 27 24.02 27 23 27 C23 25.68 23 24.36 23 23 C22.01 22.67 21.02 22.34 20 22 C19.67 21.34 19.34 20.68 19 20 C18.01 20 17.02 20 16 20 C15.505 17.525 15.505 17.525 15 15 C14.01 15 13.02 15 12 15 C12 14.01 12 13.02 12 12 C11.34 12 10.68 12 10 12 C10 12.66 10 13.32 10 14 C9.34 14 8.68 14 8 14 C6.74335022 11.09399739 6 9.20395416 6 6 C4.35 6.33 2.7 6.66 1 7 C-1 4 -1 4 -0.625 1.8125 C-0.41875 1.214375 -0.2125 0.61625 0 0 Z " transform="translate(425,345)" style="fill: #B56ECE;"/>
    <path d="M0 0 C0.928125 0.7115625 0.928125 0.7115625 1.875 1.4375 C1.875 2.0975 1.875 2.7575 1.875 3.4375 C0.555 3.4375 -0.765 3.4375 -2.125 3.4375 C-2.125 2.7775 -2.125 2.1175 -2.125 1.4375 C-6.05575644 2.01202746 -6.05575644 2.01202746 -9.125 4.4375 C-9.455 3.4475 -9.785 2.4575 -10.125 1.4375 C-11.115 1.4375 -12.105 1.4375 -13.125 1.4375 C-13.125 0.7775 -13.125 0.1175 -13.125 -0.5625 C-14.98125 -0.253125 -14.98125 -0.253125 -16.875 0.0625 C-20.24409835 0.49857124 -22.25341921 0.47153639 -25.125 -1.5625 C-25.125 -1.2325 -25.125 -0.9025 -25.125 -0.5625 C-28.095 -0.5625 -31.065 -0.5625 -34.125 -0.5625 C-25.68947552 -8.99802448 -9.37920631 -4.68960316 0 0 Z " transform="translate(681.125,331.5625)" style="fill: #6D4FDA;"/>
    <path d="M0 0 C0.33 0 0.66 0 1 0 C1.33 18.81 1.66 37.62 2 57 C2.66 57 3.32 57 4 57 C3.67 55.68 3.34 54.36 3 53 C5.0252003 54.40883499 5.91033987 55.50388059 6.3515625 57.9453125 C6.42117188 58.66460938 6.49078125 59.38390625 6.5625 60.125 C6.706875 61.40375 6.85125 62.6825 7 64 C7.66 64.33 8.32 64.66 9 65 C11 67 11 67 11.125 69.625 C11.08375 70.40875 11.0425 71.1925 11 72 C4.87582389 67.54605374 1.5440992 62.46406058 0 55 C-0.08578709 53.16730653 -0.11773341 51.33176568 -0.11352539 49.49707031 C-0.11344986 48.39623108 -0.11337433 47.29539185 -0.11329651 46.16119385 C-0.10813522 44.97878113 -0.10297394 43.79636841 -0.09765625 42.578125 C-0.0962413 41.36300232 -0.09482635 40.14787964 -0.09336853 38.89593506 C-0.08776988 35.01393169 -0.0752176 31.13198594 -0.0625 27.25 C-0.05748483 24.61849042 -0.05292195 21.98697993 -0.04882812 19.35546875 C-0.03780089 12.90362617 -0.02106408 6.4518172 0 0 Z " transform="translate(346,512)" style="fill: #9E4AA9;"/>
    <path d="M0 0 C-0.99 0.495 -0.99 0.495 -2 1 C-2 1.66 -2 2.32 -2 3 C-5.72965139 5.03435531 -7.66905042 6 -12 6 C-14.01495907 6.61998741 -16.0187415 7.27954236 -18 8 C-18 8.99 -18 9.98 -18 11 C-20.528436 14.83947688 -22.5969913 16.65463623 -27 18 C-27.33 16.35 -27.66 14.7 -28 13 C-21.72485779 6.91766943 -9.39824314 -3.6147089 0 0 Z " transform="translate(384,328)" style="fill: #C767C9;"/>
    <path d="M0 0 C1.65 0 3.3 0 5 0 C-0.13068314 5.77201853 -6.56290453 9.59382324 -14.37109375 10.30859375 C-23.83194735 10.71337369 -30.97371916 9.60243111 -39 4 C-39.33 3.34 -39.66 2.68 -40 2 C-39.29875 2.28875 -38.5975 2.5775 -37.875 2.875 C-31.57040003 5.62803547 -31.57040003 5.62803547 -25 5 C-24.34 5.33 -23.68 5.66 -23 6 C-14.80043161 6.49342535 -6.45580061 5.7279003 1 2 C0.505 1.01 0.505 1.01 0 0 Z " transform="translate(397,582)" style="fill: #A54DBE;"/>
    <path d="M0 0 C3.3 0 6.6 0 10 0 C9.79375 0.78375 9.5875 1.5675 9.375 2.375 C9.25125 3.24125 9.1275 4.1075 9 5 C10.9254644 7.2236068 10.9254644 7.2236068 14 8 C15.37868281 9.62935241 16.71274093 11.29749607 18 13 C18.66 13.66 19.32 14.32 20 15 C20.66 15.66 21.32 16.32 22 17 C21.625 19.125 21.625 19.125 21 21 C4.21449559 5.64740451 4.21449559 5.64740451 0 1 C0 0.67 0 0.34 0 0 Z " transform="translate(542,433)" style="fill: #6973D4;"/>
    <path d="M0 0 C0.66 0.66 1.32 1.32 2 2 C-0.09596714 4.00925808 -2.20087926 6.00731221 -4.3125 8 C-5.20485352 8.85851562 -5.20485352 8.85851562 -6.11523438 9.734375 C-6.98051758 10.54648437 -6.98051758 10.54648437 -7.86328125 11.375 C-8.39219971 11.87773437 -8.92111816 12.38046875 -9.46606445 12.8984375 C-11 14 -11 14 -14 14 C-14.33 14.99 -14.66 15.98 -15 17 C-16.63064764 18.05771739 -18.30280873 19.05273046 -20 20 C-21.34631825 20.98244845 -22.68441297 21.97676564 -24 23 C-23.9375 20.8125 -23.9375 20.8125 -23 18 C-21.37151259 16.57342747 -19.65582245 15.43894829 -17.83984375 14.26171875 C-15.74050569 12.90465987 -15.74050569 12.90465987 -13.3125 10.3125 C-11 8 -11 8 -8.8125 6.9375 C-6.81736404 6.13881633 -6.81736404 6.13881633 -6.0625 4 C-4.60163333 1.25013332 -2.88694538 0.91166696 0 0 Z " transform="translate(687,383)" style="fill: #9E41D5;"/>
    <path d="M0 0 C2.88888402 1.31541778 5.0030518 2.77135885 7.3125 4.9375 C11.44019252 8.55254549 15.32334664 10.82914979 20.9375 11.1875 C21.618125 11.125625 22.29875 11.06375 23 11 C23 11.99 23 12.98 23 14 C23.99 14.33 24.98 14.66 26 15 C25.67 15.99 25.34 16.98 25 18 C22.80078125 18.75 22.80078125 18.75 20 19 C17.60546875 17.375 17.60546875 17.375 15.1875 15 C14.32511719 14.17242187 13.46273437 13.34484375 12.57421875 12.4921875 C11.29998047 11.25855469 11.29998047 11.25855469 10 10 C7.87975103 8.15049593 5.73918711 6.32791694 3.59375 4.5078125 C2 3 2 3 0 0 Z " transform="translate(564,454)" style="fill: #636DCE;"/>
    <path d="M0 0 C0.33 0.99 0.66 1.98 1 3 C0.01 3.99 -0.98 4.98 -2 6 C-1.67 6.66 -1.34 7.32 -1 8 C-1.928125 8.7115625 -1.928125 8.7115625 -2.875 9.4375 C-7.8122091 15.39119333 -7.32068336 24.09907068 -7.4140625 31.50390625 C-7.43342865 32.4677977 -7.4527948 33.43168915 -7.4727478 34.42478943 C-7.53200812 37.47060601 -7.57871275 40.51646149 -7.625 43.5625 C-7.66322916 45.64129153 -7.70228368 47.72006806 -7.7421875 49.79882812 C-7.83766496 54.86576198 -7.92189118 59.93276985 -8 65 C-8.33 65 -8.66 65 -9 65 C-9.07656229 58.63207776 -9.12881323 52.26427584 -9.16479492 45.89599609 C-9.17980768 43.73319055 -9.20022416 41.57041507 -9.22631836 39.40771484 C-9.26303366 36.28475489 -9.27980196 33.1622002 -9.29296875 30.0390625 C-9.30845261 29.08448151 -9.32393646 28.12990051 -9.33988953 27.14639282 C-9.34187066 19.10095028 -7.98605536 11.21263962 -3.375 4.4375 C-2.94960938 3.79683594 -2.52421875 3.15617187 -2.0859375 2.49609375 C-1 1 -1 1 0 0 Z " transform="translate(355,343)" style="fill: #B253AE;"/>
    <path d="M0 0 C2.64 0 5.28 0 8 0 C9 2 9 2 8 5 C8.66 5 9.32 5 10 5 C10 5.66 10 6.32 10 7 C13.72430357 7.69289369 17.21083746 8.11144596 21 8 C20.34 9.65 19.68 11.3 19 13 C10.80117879 11.01641422 5.79941556 7.07788437 0 1 C0 0.67 0 0.34 0 0 Z " transform="translate(536,536)" style="fill: #5587D5;"/>
    <path d="M0 0 C-0.1875 1.75 -0.1875 1.75 -1 4 C-1.825 4.61875 -2.65 5.2375 -3.5 5.875 C-6.29278843 7.8310836 -6.29278843 7.8310836 -6.8125 11.25 C-6.874375 12.1575 -6.93625 13.065 -7 14 C-7.99 13.67 -8.98 13.34 -10 13 C-10.825 13.495 -11.65 13.99 -12.5 14.5 C-13.325 14.995 -14.15 15.49 -15 16 C-15.99 15.67 -16.98 15.34 -18 15 C-15.57473278 12.48787748 -13.13287993 9.99253602 -10.6875 7.5 C-9.65206055 6.42685547 -9.65206055 6.42685547 -8.59570312 5.33203125 C-7.92861328 4.65527344 -7.26152344 3.97851562 -6.57421875 3.28125 C-5.96151123 2.65283203 -5.34880371 2.02441406 -4.7175293 1.37695312 C-3 0 -3 0 0 0 Z " transform="translate(582,390)" style="fill: #6962D0;"/>
    <path d="M0 0 C5.13458615 3.60513496 9.61924126 7.48175673 13.984375 11.984375 C15.99546923 13.99546923 18.08551243 15.84367726 20.25 17.6875 C23.21052644 20.22842427 25.69444699 22.82986462 28 26 C25.75 25.875 25.75 25.875 23 25 C21.6273318 23.02678947 20.29572383 21.02456848 19 19 C16.52246503 17.02703822 16.52246503 17.02703822 14 16 C13.34 16.33 12.68 16.66 12 17 C11.38125 15.3603125 11.38125 15.3603125 10.75 13.6875 C9.02848399 9.64887239 6.89572099 7.94786049 3 6 C3 5.34 3 4.68 3 4 C2.01 4 1.02 4 0 4 C0 2.68 0 1.36 0 0 Z " transform="translate(464,380)" style="fill: #8380D3;"/>
    <path d="M0 0 C0 18.81 0 37.62 0 57 C-0.33 57 -0.66 57 -1 57 C-1.33 40.5 -1.66 24 -2 7 C-2.66 6.67 -3.32 6.34 -4 6 C-1.69230769 0 -1.69230769 0 0 0 Z " transform="translate(297,691)" style="fill: #CAD3D8;"/>
    <path d="M0 0 C3.09138701 2.06092467 4.40245558 3.6984082 6 7 C6.99 7.66 7.98 8.32 9 9 C9 9.66 9 10.32 9 11 C9.556875 11.2475 10.11375 11.495 10.6875 11.75 C13 13 13 13 15.5 15.0625 C17.82767647 16.86644927 19.1441791 17.57691542 22 18 C21.67 19.32 21.34 20.64 21 22 C17.07649782 20.38389077 14.28594646 17.68680596 11.25 14.8125 C10.18816477 13.82220339 9.12566268 12.83262134 8.0625 11.84375 C7.54429687 11.36035156 7.02609375 10.87695312 6.4921875 10.37890625 C3.39188406 7.51396616 0.19746203 4.75545992 -3 2 C-2.01 1.34 -1.02 0.68 0 0 Z " transform="translate(391,402)" style="fill: #CB83E1;"/>
    <path d="M0 0 C0.66 0.33 1.32 0.66 2 1 C-2.23323034 5.35228994 -6.59021523 9.47322424 -11.203125 13.421875 C-12.87340058 14.88881269 -14.44788672 16.40956293 -16 18 C-16.99 17.67 -17.98 17.34 -19 17 C-18.21625 16.38125 -17.4325 15.7625 -16.625 15.125 C-12.3177579 11.63818497 -11.39209717 9.36951765 -10 4 C-9.34 4 -8.68 4 -8 4 C-8 3.34 -8 2.68 -8 2 C-6.8553125 2.3403125 -6.8553125 2.3403125 -5.6875 2.6875 C-4.800625 2.790625 -3.91375 2.89375 -3 3 C-1.1645201 1.66621425 -1.1645201 1.66621425 0 0 Z " transform="translate(614,446)" style="fill: #6964D2;"/>
    <path d="M0 0 C0.33 1.32 0.66 2.64 1 4 C0.01 4.33 -0.98 4.66 -2 5 C-2.33 5.99 -2.66 6.98 -3 8 C-2.34 8 -1.68 8 -1 8 C-0.67 9.98 -0.34 11.96 0 14 C-4.05364337 11.15149385 -6.24977746 8.6672601 -8 4 C-7.8125 1.6875 -7.8125 1.6875 -7 0 C-4.3333581 -1.33332095 -2.83319697 -0.67102033 0 0 Z " transform="translate(647,569)" style="fill: #6F4EC3;"/>
    <path d="M0 0 C4.455 0.99 4.455 0.99 9 2 C9.33 3.32 9.66 4.64 10 6 C10.66 6.33 11.32 6.66 12 7 C12 7.66 12 8.32 12 9 C13.32 9.33 14.64 9.66 16 10 C16.103125 10.5775 16.20625 11.155 16.3125 11.75 C17.09792798 14.32049158 18.30504197 15.93657284 20 18 C16.85545561 16.59509308 14.61164862 14.91526361 12.109375 12.55859375 C11.40039062 11.89279297 10.69140625 11.22699219 9.9609375 10.54101562 C9.23132813 9.84685547 8.50171875 9.15269531 7.75 8.4375 C7.00492187 7.73947266 6.25984375 7.04144531 5.4921875 6.32226562 C1.4575548 2.51301076 1.4575548 2.51301076 0 1 C0 0.67 0 0.34 0 0 Z " transform="translate(481,487)" style="fill: #5E8DCE;"/>
    <path d="M0 0 C1.99339288 1.79405359 3.27123761 3.44201685 4.6875 5.75 C7.60968171 9.85684996 11.12224749 12.81873702 15 16 C14.67 16.99 14.34 17.98 14 19 C13.38125 18.67 12.7625 18.34 12.125 18 C10.08981656 16.85806765 10.08981656 16.85806765 8 17 C7.896875 16.360625 7.79375 15.72125 7.6875 15.0625 C7.460625 14.381875 7.23375 13.70125 7 13 C6.01 12.67 5.02 12.34 4 12 C2.8125 8.9375 2.8125 8.9375 2 6 C1.01 6.495 1.01 6.495 0 7 C0 4.69 0 2.38 0 0 Z " transform="translate(351,367)" style="fill: #C23BAA;"/>
    <path d="M0 0 C0.33 0 0.66 0 1 0 C1.60634482 9.80257458 0.63204513 17.84290508 -5.75 25.625 C-6.4925 26.40875 -7.235 27.1925 -8 28 C-8 25 -8 25 -7 22 C-6.34 21.67 -5.68 21.34 -5 21 C-3.1790461 18.10159588 -2.82558678 16.12753208 -3.0625 12.75 C-3.20012019 7.8685308 -1.94247259 4.45149968 0 0 Z " transform="translate(605,515)" style="fill: #4379DB;"/>
    <path d="M0 0 C2.0252003 1.40883499 2.91033987 2.50388059 3.3515625 4.9453125 C3.42117188 5.66460938 3.49078125 6.38390625 3.5625 7.125 C3.706875 8.40375 3.85125 9.6825 4 11 C4.66 11.33 5.32 11.66 6 12 C8 14 8 14 8.125 16.625 C8.08375 17.40875 8.0425 18.1925 8 19 C3.11133116 15.44460448 -0.12339791 11.86276377 -2 6 C-1.67 5.34 -1.34 4.68 -1 4 C-0.34 4 0.32 4 1 4 C0.67 2.68 0.34 1.36 0 0 Z " transform="translate(349,565)" style="fill: #AB51BB;"/>
    <path d="M0 0 C4.07915022 2.10559202 6.04642613 4.08662363 8.3125 8.0625 C8.82425781 8.94035156 9.33601562 9.81820313 9.86328125 10.72265625 C11 13 11 13 11 15 C10.34 15 9.68 15 9 15 C9 14.34 9 13.68 9 13 C8.2575 12.835 7.515 12.67 6.75 12.5 C2.80793737 10.34978402 1.47276392 7.15500435 0 3 C0 2.01 0 1.02 0 0 Z M5 13 C7 14 7 14 7 14 Z " transform="translate(687,337)" style="fill: #714FDD;"/>
    <path d="M0 0 C2 1 2 1 3 4 C1.329375 4.2784375 1.329375 4.2784375 -0.375 4.5625 C-1.57125 5.036875 -2.7675 5.51125 -4 6 C-5.54086322 9.51400668 -5.54086322 9.51400668 -6 13 C-6.66 12.67 -7.32 12.34 -8 12 C-8 11.01 -8 10.02 -8 9 C-9.65 10.32 -11.3 11.64 -13 13 C-13.66 12.67 -14.32 12.34 -15 12 C-10.60830298 7.23775354 -6.01244293 2.65376792 0 0 Z " transform="translate(645,331)" style="fill: #694DD2;"/>
    <path d="M0 0 C2.8125 -0.3125 2.8125 -0.3125 6 0 C7.88599343 2.38892501 9 3.91851558 9 7 C9.66 7 10.32 7 11 7 C11.66 8.32 12.32 9.64 13 11 C8.02753179 10.84931915 5.73646624 8.14378072 2.453125 4.7890625 C1 3 1 3 0 0 Z " transform="translate(449,457)" style="fill: #818DDB;"/>
    <path d="M0 0 C1.051875 0.433125 1.051875 0.433125 2.125 0.875 C8.43491327 3.5524125 8.43491327 3.5524125 15 3 C15.99 3.66 16.98 4.32 18 5 C18 5.66 18 6.32 18 7 C20.97 7 23.94 7 27 7 C27 7.33 27 7.66 27 8 C16.91579516 8.80554299 9.49981423 7.74593396 1 2 C0.67 1.34 0.34 0.68 0 0 Z " transform="translate(357,584)" style="fill: #9E49B0;"/>
    <path d="M0 0 C0.66 0 1.32 0 2 0 C0.25267359 6.26480445 -1.97120279 10.88233868 -6 16 C-6 15.01 -6 14.02 -6 13 C-6.020625 11.824375 -6.04125 10.64875 -6.0625 9.4375 C-6 6 -6 6 -5 4 C-4.01 4 -3.02 4 -2 4 C-2 3.34 -2 2.68 -2 2 C-1.34 2 -0.68 2 0 2 C0 1.34 0 0.68 0 0 Z " transform="translate(409,566)" style="fill: #AA51C3;"/>
    <path d="M0 0 C3.40013186 0.5765441 4.92670485 1.60997661 7.25 4.125 C10.39611617 7.4270659 13.70880791 10.39598103 17.203125 13.32421875 C19.07674426 15.07157236 20.52511967 16.9105862 22 19 C19.75 18.875 19.75 18.875 17 18 C15.65668346 16.00669158 14.32405988 14.00615134 13 12 C12.01 11.505 11.02 11.01 10 10.5 C6.30000613 8.65000306 5.1721069 6.44541095 3 3 C2.01 2.67 1.02 2.34 0 2 C0 1.34 0 0.68 0 0 Z " transform="translate(512,425)" style="fill: #507FCC;"/>
    <path d="M0 0 C5.445 0.99 5.445 0.99 11 2 C10.01 2.495 10.01 2.495 9 3 C9 3.99 9 4.98 9 6 C15.27 6.66 21.54 7.32 28 8 C28 8.33 28 8.66 28 9 C18.52144951 9.39555002 10.1125653 9.53290123 2.4375 3.375 C1.633125 2.59125 0.82875 1.8075 0 1 C0 0.67 0 0.34 0 0 Z " transform="translate(647,583)" style="fill: #684AB5;"/>
    <path d="M0 0 C0.99 0.33 1.98 0.66 3 1 C2.67515625 1.92619141 2.67515625 1.92619141 2.34375 2.87109375 C0.60496512 8.15989777 -0.14221221 12.47051307 0.09375 18.015625 C-0.04285329 20.90706129 -1.26006188 22.75257992 -3 25 C-4 23 -4 23 -3 20 C-3.00563174 17.91625765 -3.05235523 15.83248328 -3.125 13.75 C-3.18607217 8.28404099 -2.65159117 4.75076751 0 0 Z " transform="translate(603,512)" style="fill: #537FEC;"/>
    <path d="M0 0 C3.0109362 2.0072908 3.63016497 2.83884224 5 6 C5.66 6 6.32 6 7 6 C7.37125 6.70125 7.7425 7.4025 8.125 8.125 C10.99452759 12.5249423 15.30576281 15.6528814 20 18 C20.625 20.0625 20.625 20.0625 21 22 C16.36496629 19.88586358 13.07884843 16.68421962 9.375 13.25 C8.694375 12.6415625 8.01375 12.033125 7.3125 11.40625 C3.4953795 7.87579072 1.11462843 5.26621546 0 0 Z " transform="translate(353,368)" style="fill: #DD79DA;"/>
    <path d="M0 0 C2.6875 -0.3125 2.6875 -0.3125 6 0 C9.66671258 2.91670319 11.56259058 5.56798763 13 10 C13.33 10.66 13.66 11.32 14 12 C10.60443872 10.53823371 8.43515037 8.64776008 5.875 6 C5.19179688 5.29875 4.50859375 4.5975 3.8046875 3.875 C3.20914062 3.25625 2.61359375 2.6375 2 2 C1.34 1.34 0.68 0.68 0 0 Z " transform="translate(411,424)" style="fill: #A17ED3;"/>
    <path d="M0 0 C4.55852754 2.87474709 8.45453608 6.06185986 12.375 9.75 C12.92027344 10.25660156 13.46554687 10.76320313 14.02734375 11.28515625 C15.35505363 12.5196935 16.67803106 13.75931718 18 15 C17.67 15.99 17.34 16.98 17 18 C16.67 17.34 16.34 16.68 16 16 C15.01 15.67 14.02 15.34 13 15 C11 13 11 13 10 10 C9.34 10 8.68 10 8 10 C7.67 9.34 7.34 8.68 7 8 C6.01 7.34 5.02 6.68 4 6 C2.04783565 4.04783565 1.15173355 2.46800047 0 0 Z " transform="translate(392,408)" style="fill: #B236A0;"/>
    <path d="M0 0 C2.05819003 3.08728504 2.35931563 4.35975238 2.6875 7.9375 C2.77386719 8.79214844 2.86023438 9.64679687 2.94921875 10.52734375 C2.99814183 12.90952136 2.69891573 14.73509263 2 17 C1.34 17 0.68 17 0 17 C-1.42597611 14.14804778 -1.1320252 11.67538825 -1.125 8.5 C-1.12757813 7.3346875 -1.13015625 6.169375 -1.1328125 4.96875 C-1 2 -1 2 0 0 Z " transform="translate(674,698)" style="fill: #383F51;"/>
    <path d="M0 0 C3.23861303 1.44424635 5.61969163 3.25772247 8.25 5.625 C8.95640625 6.25664062 9.6628125 6.88828125 10.390625 7.5390625 C10.92171875 8.02117187 11.4528125 8.50328125 12 9 C11.34 10.65 10.68 12.3 10 14 C6.76095668 11.85214825 5.10584494 9.87144442 3.3125 6.4375 C2.89613281 5.65246094 2.47976563 4.86742187 2.05078125 4.05859375 C1.36166221 2.70853525 0.67787064 1.35574127 0 0 Z " transform="translate(569,476)" style="fill: #477EDF;"/>
    <path d="M0 0 C0.66 0.33 1.32 0.66 2 1 C-2.625 6.75 -2.625 6.75 -6 9 C-6.103125 9.66 -6.20625 10.32 -6.3125 11 C-6.539375 11.66 -6.76625 12.32 -7 13 C-10.0625 14.25 -10.0625 14.25 -13 15 C-12.21718695 13.66144944 -11.42348123 12.32926356 -10.625 11 C-10.18414063 10.2575 -9.74328125 9.515 -9.2890625 8.75 C-8.86367188 8.1725 -8.43828125 7.595 -8 7 C-7.34 7 -6.68 7 -6 7 C-6 6.34 -6 5.68 -6 5 C-4.04072937 3.2856382 -2.04119788 1.61594832 0 0 Z " transform="translate(656,409)" style="fill: #9248D6;"/>
    <path d="M0 0 C0 4.29 0 8.58 0 13 C-2.38594197 11.80702902 -2.83734847 10.85642735 -4.125 8.5625 C-4.47820313 7.94503906 -4.83140625 7.32757813 -5.1953125 6.69140625 C-6 5 -6 5 -6 3 C-5.34 3 -4.68 3 -4 3 C-4 2.34 -4 1.68 -4 1 C-2 0 -2 0 0 0 Z " transform="translate(700,374)" style="fill: #9F3BD7;"/>
    <path d="M0 0 C3.08917348 0.3432415 4.77105979 0.82193539 7.25 2.75 C9.17806461 5.22894021 9.6567585 6.91082652 10 10 C9.01 10.33 8.02 10.66 7 11 C7 10.01 7 9.02 7 8 C6.01 8 5.02 8 4 8 C4 6.68 4 5.36 4 4 C3.01 3.67 2.02 3.34 1 3 C0.67 2.01 0.34 1.02 0 0 Z " transform="translate(444,364)" style="fill: #AA7AD5;"/>
    <path d="M0 0 C0.33 0 0.66 0 1 0 C1 6.6 1 13.2 1 20 C8.47825081 19.67082039 8.47825081 19.67082039 12 17 C12 18.32 12 19.64 12 21 C8.04 21 4.08 21 0 21 C0 14.07 0 7.14 0 0 Z " transform="translate(777,725)" style="fill: #2F3E4F;"/>
    <path d="M0 0 C3.21524305 1.40844718 5.32183868 3.10344786 7.75 5.625 C8.67039062 6.57246094 8.67039062 6.57246094 9.609375 7.5390625 C10.29773438 8.26222656 10.29773438 8.26222656 11 9 C9.02 9.99 9.02 9.99 7 11 C5 8 5 8 5 6 C4.01 6 3.02 6 2 6 C2 5.01 2 4.02 2 3 C1.34 3 0.68 3 0 3 C0 2.01 0 1.02 0 0 Z M-2 3 C-1.34 3 -0.68 3 0 3 C0 3.66 0 4.32 0 5 C-0.66 5 -1.32 5 -2 5 C-2 4.34 -2 3.68 -2 3 Z " transform="translate(435,354)" style="fill: #AA72CB;"/>
    <path d="M0 0 C0.66 0.33 1.32 0.66 2 1 C1.33333333 2.33333333 0.66666667 3.66666667 0 5 C-0.226875 5.721875 -0.45375 6.44375 -0.6875 7.1875 C-2 9 -2 9 -5.625 9.75 C-6.73875 9.8325 -7.8525 9.915 -9 10 C-8.06409496 8.8944811 -7.12620142 7.79064547 -6.1875 6.6875 C-5.66542969 6.07261719 -5.14335938 5.45773437 -4.60546875 4.82421875 C-3.12827531 3.14575321 -1.59960869 1.56117966 0 0 Z " transform="translate(562,406)" style="fill: #6A6BCC;"/>
    <path d="M0 0 C13.6332574 -0.3690205 13.6332574 -0.3690205 20 2 C17.61426621 3.89213369 15.92824652 5.02391783 13 6 C13 5.34 13 4.68 13 4 C12.34 4 11.68 4 11 4 C10.67 3.34 10.34 2.68 10 2 C7.64400765 1.53248212 7.64400765 1.53248212 4.9375 1.375 C4.01839844 1.30023438 3.09929688 1.22546875 2.15234375 1.1484375 C1.08693359 1.07496094 1.08693359 1.07496094 0 1 C0 0.67 0 0.34 0 0 Z " transform="translate(655,327)" style="fill: #7157CC;"/>
    <path d="M0 0 C-0.34347427 3.20575987 -0.9707854 3.97516759 -3.5 6.125 C-4.325 6.74375 -5.15 7.3625 -6 8 C-6.33 8.66 -6.66 9.32 -7 10 C-7.66 10 -8.32 10 -9 10 C-7.57895263 4.78949296 -6.03245847 0 0 0 Z " transform="translate(582,390)" style="fill: #6F66D7;"/>
    <path d="M0 0 C1.32 0 2.64 0 4 0 C4.33 0.66 4.66 1.32 5 2 C5.99 1.67 6.98 1.34 8 1 C8.103125 1.763125 8.20625 2.52625 8.3125 3.3125 C9.04364039 6.17059424 9.76951913 7.15742885 12 9 C11.67 9.66 11.34 10.32 11 11 C9.16365304 9.35742342 7.3308593 7.71117305 5.5 6.0625 C4.97535156 5.59392578 4.45070313 5.12535156 3.91015625 4.64257812 C2.5878256 3.44904592 1.29166061 2.22665821 0 1 C0 0.67 0 0.34 0 0 Z " transform="translate(376,392)" style="fill: #D57ADB;"/>
    <path d="M0 0 C2.77021614 1.05920029 4.22044563 2.56784664 6.125 4.8125 C6.125 5.4725 6.125 6.1325 6.125 6.8125 C4.475 6.4825 2.825 6.1525 1.125 5.8125 C0.795 4.8225 0.465 3.8325 0.125 2.8125 C-1.195 3.1425 -2.515 3.4725 -3.875 3.8125 C-3.875 2.8225 -3.875 1.8325 -3.875 0.8125 C-1.875 -0.1875 -1.875 -0.1875 0 0 Z " transform="translate(468.875,386.1875)" style="fill: #A486E1;"/>
    <path d="M0 0 C0 3.61165822 -0.61753391 4.3710719 -3 7 C-4.65532623 8.01866229 -6.32260138 9.01810813 -8 10 C-9.36984198 11.29579647 -10.7151049 12.61992749 -12 14 C-12.66 13.67 -13.32 13.34 -14 13 C-12.41984377 11.39270369 -10.83574348 9.78928424 -9.25 8.1875 C-8.36828125 7.29417969 -7.4865625 6.40085937 -6.578125 5.48046875 C-4.46551149 3.44787848 -2.39205335 1.68226182 0 0 Z " transform="translate(598,373)" style="fill: #645AC4;"/>
    <path d="M0 0 C-0.54226981 3.79588866 -2.20127563 5.47211993 -5 8 C-5.99 7.67 -6.98 7.34 -8 7 C-6.13932792 2.84926997 -4.83061881 0 0 0 Z " transform="translate(364,338)" style="fill: #D76BD9;"/>
    <path d="M0 0 C0.99 0 1.98 0 3 0 C3 1.65 3 3.3 3 5 C5.97 5.33 8.94 5.66 12 6 C12 6.33 12 6.66 12 7 C7.38 7 2.76 7 -2 7 C-1.34 4.69 -0.68 2.38 0 0 Z " transform="translate(526,741)" style="fill: #383F4E;"/>
    <path d="M0 0 C0.33 0 0.66 0 1 0 C1.08038183 3.53680049 1.01766138 6.60779539 0 10 C-0.185625 10.7425 -0.37125 11.485 -0.5625 12.25 C-0.706875 12.8275 -0.85125 13.405 -1 14 C-2.32 14 -3.64 14 -5 14 C-3.45730076 9.27934033 -1.92205381 4.58335908 0 0 Z " transform="translate(550,683)" style="fill: #363F4E;"/>
    <path d="M0 0 C1.17219543 0.78345715 2.33763668 1.57702836 3.5 2.375 C4.47453125 3.03628906 4.47453125 3.03628906 5.46875 3.7109375 C5.9740625 4.13632812 6.479375 4.56171875 7 5 C7 5.66 7 6.32 7 7 C5.02 7.66 3.04 8.32 1 9 C1 7.68 1 6.36 1 5 C0.01 5.495 0.01 5.495 -1 6 C-1.042721 4.33388095 -1.04063832 2.66617115 -1 1 C-0.67 0.67 -0.34 0.34 0 0 Z " transform="translate(545,455)" style="fill: #5D91E8;"/>
    <path d="M0 0 C1.47668858 0.0133035 2.95331108 0.03716415 4.4296875 0.0703125 C5.18378906 0.07933594 5.93789063 0.08835937 6.71484375 0.09765625 C8.57826004 0.1212438 10.44151343 0.15711531 12.3046875 0.1953125 C12.3046875 0.5253125 12.3046875 0.8553125 12.3046875 1.1953125 C7.3546875 1.1953125 2.4046875 1.1953125 -2.6953125 1.1953125 C-3.0253125 2.5153125 -3.3553125 3.8353125 -3.6953125 5.1953125 C-5.2578125 6.9453125 -5.2578125 6.9453125 -6.6953125 8.1953125 C-7.3203125 6.3203125 -7.3203125 6.3203125 -7.6953125 4.1953125 C-3.6953125 0.1953125 -3.6953125 0.1953125 0 0 Z " transform="translate(298.6953125,665.8046875)" style="fill: #303E50;"/>
    <path d="M0 0 C3 1 3 1 4 3 C4.515625 3.495 5.03125 3.99 5.5625 4.5 C7 6 7 6 7 8 C4 9 4 9 1 8 C0.67 8.66 0.34 9.32 0 10 C0.2784375 9.1028125 0.2784375 9.1028125 0.5625 8.1875 C1.22093687 5.83591238 1.22093687 5.83591238 0 3 C0 2.01 0 1.02 0 0 Z " transform="translate(456,374)" style="fill: #A77FD9;"/>
    <path d="M0 0 C0.99 0.33 1.98 0.66 3 1 C4.1875 4.5625 4.1875 4.5625 5 8 C4.01 8.495 4.01 8.495 3 9 C1.35 7.35 -0.3 5.7 -2 4 C-1.34 4 -0.68 4 0 4 C-0.33 3.01 -0.66 2.02 -1 1 C-0.67 0.67 -0.34 0.34 0 0 Z " transform="translate(500,497)" style="fill: #6E98E6;"/>
    <path d="M0 0 C0.33 0.66 0.66 1.32 1 2 C1.66 2 2.32 2 3 2 C1.72278474 6.99275057 -0.17330957 9.57611908 -4 13 C-3.67 11.02 -3.34 9.04 -3 7 C-2.01 7 -1.02 7 0 7 C0 4.69 0 2.38 0 0 Z " transform="translate(696,569)" style="fill: #6349BE;"/>
    <path d="M0 0 C4.63720719 3.27530896 8.68542782 6.30435607 12 11 C11.01 11.495 11.01 11.495 10 12 C9.62488281 11.50628906 9.24976563 11.01257813 8.86328125 10.50390625 C5.6715022 6.37086245 5.6715022 6.37086245 1.125 4.0625 C0.42375 4.041875 -0.2775 4.02125 -1 4 C-0.67 2.68 -0.34 1.36 0 0 Z " transform="translate(552,460)" style="fill: #4581CF;"/>
    <path d="M0 0 C0 0.66 0 1.32 0 2 C-0.7425 2.226875 -1.485 2.45375 -2.25 2.6875 C-5.51139591 4.24407532 -6.92894975 6.08518854 -9 9 C-9.99 8.67 -10.98 8.34 -12 8 C-10.76284282 6.6547417 -9.50975423 5.32412124 -8.25 4 C-7.20585938 2.88625 -7.20585938 2.88625 -6.140625 1.75 C-4 0 -4 0 0 0 Z " transform="translate(552,421)" style="fill: #7A7EE5;"/>
    <path d="M0 0 C0.886875 0.165 1.77375 0.33 2.6875 0.5 C5.53596892 0.92995757 8.13004802 1.08441035 11 1 C10.34 2.65 9.68 4.3 9 6 C2.25 3.375 2.25 3.375 0 0 Z " transform="translate(546,543)" style="fill: #5B8FE9;"/>
    <path d="M0 0 C4.43090471 1.20842856 6.98112756 2.51668565 10 6 C9.67 6.99 9.34 7.98 9 9 C7.49704815 7.69088122 5.99770689 6.37761608 4.5 5.0625 C3.6646875 4.33160156 2.829375 3.60070312 1.96875 2.84765625 C1.3190625 2.23792969 0.669375 1.62820313 0 1 C0 0.67 0 0.34 0 0 Z " transform="translate(431,442)" style="fill: #8A83CF;"/>
    <path d="M0 0 C3.66060821 0.58536753 5.54535164 2.083239 8.25 4.5625 C8.95640625 5.20316406 9.6628125 5.84382813 10.390625 6.50390625 C10.92171875 6.99761719 11.4528125 7.49132812 12 8 C8.42188369 8 7.73324619 7.13534858 5 5 C4.01 4.67 3.02 4.34 2 4 C0.8125 1.9375 0.8125 1.9375 0 0 Z " transform="translate(540,451)" style="fill: #5386D2;"/>
    <path d="M0 0 C0.33 0.66 0.66 1.32 1 2 C-1.18416406 5.27624608 -2.66981539 6.03216364 -6 8 C-8.05480247 9.60999817 -10.02031845 11.29655308 -12 13 C-10.44997253 9.11602311 -7.99523379 6.97020381 -4.875 4.25 C-3.96492187 3.45078125 -3.05484375 2.6515625 -2.1171875 1.828125 C-1.06917969 0.92320312 -1.06917969 0.92320312 0 0 Z " transform="translate(552,416)" style="fill: #676EC0;"/>
    <path d="M0 0 C3.82097239 0.53069061 6.06171403 1.49701566 9 4 C8.67 4.66 8.34 5.32 8 6 C5.69 6 3.38 6 1 6 C0.67 4.02 0.34 2.04 0 0 Z " transform="translate(500,417)" style="fill: #8392EA;"/>
    <path d="M0 0 C4.63720719 3.27530896 8.68542782 6.30435607 12 11 C8.88626628 9.50079488 5.87771795 7.91847864 3 6 C3 5.34 3 4.68 3 4 C2.01 4 1.02 4 0 4 C0 2.68 0 1.36 0 0 Z " transform="translate(464,380)" style="fill: #8578C3;"/>
    <path d="M0 0 C1.98 0 3.96 0 6 0 C6.33 0.66 6.66 1.32 7 2 C6.01 2.33 5.02 2.66 4 3 C4.99 3 5.98 3 7 3 C7.66 4.65 8.32 6.3 9 8 C4.7257442 6.4169423 2.73468206 3.49431596 0 0 Z " transform="translate(527,528)" style="fill: #5484CB;"/>
    <path d="M0 0 C1.65 0.33 3.3 0.66 5 1 C4.34 2.32 3.68 3.64 3 5 C3.99 5.33 4.98 5.66 6 6 C6 6.66 6 7.32 6 8 C3.11562221 6.70700306 1.12780579 5.34058637 -1 3 C-0.67 2.01 -0.34 1.02 0 0 Z " transform="translate(514,512)" style="fill: #6594EB;"/>
    <path d="M0 0 C0.97608217 2.92824652 1.08226668 4.95613276 1 8 C-0.98 7.34 -2.96 6.68 -5 6 C-3.63016497 2.83884224 -3.0109362 2.0072908 0 0 Z " transform="translate(566,405)" style="fill: #7670E3;"/>
    <path d="M0 0 C0.99 0.33 1.98 0.66 3 1 C2.34 1 1.68 1 1 1 C0.75507812 1.59296875 0.51015625 2.1859375 0.2578125 2.796875 C-1.20952109 5.36698726 -2.72292225 6.54529966 -5.125 8.25 C-5.84945312 8.77078125 -6.57390625 9.2915625 -7.3203125 9.828125 C-7.87460937 10.21484375 -8.42890625 10.6015625 -9 11 C-8.44848637 7.23132354 -6.9602745 5.65408496 -4.125 3.1875 C-3.42632813 2.56230469 -2.72765625 1.93710937 -2.0078125 1.29296875 C-1.34523438 0.86628906 -0.68265625 0.43960937 0 0 Z " transform="translate(592,380)" style="fill: #7764E7;"/>
    <path d="M0 0 C3.53600465 1.91135386 5.78972846 3.62642766 8 7 C7.67 7.66 7.34 8.32 7 9 C5.68 8.01 4.36 7.02 3 6 C2.67 6.66 2.34 7.32 2 8 C0 2.25 0 2.25 0 0 Z " transform="translate(687,337)" style="fill: #6953C8;"/>
    <path d="M0 0 C2.4375 0.375 2.4375 0.375 5 1 C5.33 1.66 5.66 2.32 6 3 C6.99 3.33 7.98 3.66 9 4 C8.67 5.32 8.34 6.64 8 8 C6.66372225 6.85760183 5.33104612 5.71098945 4 4.5625 C3.2575 3.92441406 2.515 3.28632813 1.75 2.62890625 C1.1725 2.09136719 0.595 1.55382812 0 1 C0 0.67 0 0.34 0 0 Z " transform="translate(475,480)" style="fill: #80A1EC;"/>
    <path d="M0 0 C2.375 -0.125 2.375 -0.125 5 0 C7 2 7 2 7 6 C5.1875 5.8125 5.1875 5.8125 3 5 C1.25 2.4375 1.25 2.4375 0 0 Z " transform="translate(422,432)" style="fill: #A786E3;"/>
    <path d="M0 0 C2.97 0 5.94 0 9 0 C8.01 1.485 8.01 1.485 7 3 C3.375 3.1875 3.375 3.1875 0 3 C0 2.01 0 1.02 0 0 Z " transform="translate(647,331)" style="fill: #7650E4;"/>
    <path d="M0 0 C0.99 0.33 1.98 0.66 3 1 C-4.11389522 7.70387244 -4.11389522 7.70387244 -9 8 C-7.68 7.34 -6.36 6.68 -5 6 C-5 5.01 -5 4.02 -5 3 C-4.360625 2.87625 -3.72125 2.7525 -3.0625 2.625 C-2.0415625 2.315625 -2.0415625 2.315625 -1 2 C-0.67 1.34 -0.34 0.68 0 0 Z " transform="translate(689,582)" style="fill: #604BB0;"/>
    <path d="M0 0 C0.99 0.33 1.98 0.66 3 1 C2.67 1.66 2.34 2.32 2 3 C2.99 3.33 3.98 3.66 5 4 C0.05 3.67 -4.9 3.34 -10 3 C-10 2.67 -10 2.34 -10 2 C-9.04287109 1.90912109 -9.04287109 1.90912109 -8.06640625 1.81640625 C-6.82697266 1.69072266 -6.82697266 1.69072266 -5.5625 1.5625 C-4.73878906 1.48128906 -3.91507813 1.40007813 -3.06640625 1.31640625 C-1.01337975 1.21069185 -1.01337975 1.21069185 0 0 Z " transform="translate(574,549)" style="fill: #578BE7;"/>
    <path d="M0 0 C2.59505753 1.45017921 3.77590452 2.34638817 4.75 5.1875 C4.8325 5.785625 4.915 6.38375 5 7 C2 7 2 7 0.61328125 5.6875 C-0.59114583 4.125 -1.79557292 2.5625 -3 1 C-2.01 0.67 -1.02 0.34 0 0 Z " transform="translate(391,402)" style="fill: #CF79DB;"/>
    <path d="M0 0 C0.66 0 1.32 0 2 0 C2.625 2.875 2.625 2.875 3 6 C2.34 6.66 1.68 7.32 1 8 C1 7.34 1 6.68 1 6 C0.01 5.67 -0.98 5.34 -2 5 C-1.34 3.35 -0.68 1.7 0 0 Z " transform="translate(540,740)" style="fill: #374356;"/>
    <path d="M0 0 C0.66 0.33 1.32 0.66 2 1 C0.90220176 2.15193623 -0.20349446 3.29634937 -1.3125 4.4375 C-1.92738281 5.07558594 -2.54226563 5.71367187 -3.17578125 6.37109375 C-5 8 -5 8 -8 9 C-8 8.01 -8 7.02 -8 6 C-7.34 6 -6.68 6 -6 6 C-6 5.34 -6 4.68 -6 4 C-4.36368108 2.95107762 -2.69514137 1.95093297 -1 1 C-0.67 0.67 -0.34 0.34 0 0 Z " transform="translate(614,446)" style="fill: #5F61CC;"/>
    <path d="M0 0 C0.99 0.33 1.98 0.66 3 1 C2.01 1.33 1.02 1.66 0 2 C0 1.34 0 0.68 0 0 Z M-3 2 C-2.01 2 -1.02 2 0 2 C0.33 2.99 0.66 3.98 1 5 C0.01 6.485 0.01 6.485 -1 8 C-1.66 8 -2.32 8 -3 8 C-3 6.02 -3 4.04 -3 2 Z " transform="translate(684,335)" style="fill: #714EDA;"/>
    <path d="M0 0 C0.66 0 1.32 0 2 0 C0.72278474 4.99275057 -1.17330957 7.57611908 -5 11 C-4.67 9.02 -4.34 7.04 -4 5 C-3.01 5 -2.02 5 -1 5 C-0.67 3.35 -0.34 1.7 0 0 Z " transform="translate(407,571)" style="fill: #954AB3;"/>
    <path d="M0 0 C1.134375 0.020625 2.26875 0.04125 3.4375 0.0625 C1.82155168 2.10369788 0.1518618 4.10322937 -1.5625 6.0625 C-2.2225 6.0625 -2.8825 6.0625 -3.5625 6.0625 C-3.94468767 4.40635343 -4.27645102 2.73792976 -4.5625 1.0625 C-3.5625 0.0625 -3.5625 0.0625 0 0 Z " transform="translate(599.5625,455.9375)" style="fill: #726CE1;"/>
    <path d="M0 0 C1.29608947 0.93137592 2.58671632 1.8703566 3.875 2.8125 C4.59429687 3.33457031 5.31359375 3.85664063 6.0546875 4.39453125 C8 6 8 6 10 9 C8.65686601 8.35330586 7.32608822 7.68096422 6 7 C4.6696875 6.319375 4.6696875 6.319375 3.3125 5.625 C0.65063719 3.75450181 0.57269174 3.05855149 0 0 Z " transform="translate(499,412)" style="fill: #587CC5;"/>
    <path d="M0 0 C4.2742558 1.5830577 6.26531794 4.50568404 9 8 C6.75 7.9375 6.75 7.9375 4 7 C2.32150176 4.7691525 1.24000737 2.52594094 0 0 Z " transform="translate(483,398)" style="fill: #6E7AC9;"/>
    <path d="M0 0 C0 2.97 0 5.94 0 9 C-1.32 8.01 -2.64 7.02 -4 6 C-1.69230769 0 -1.69230769 0 0 0 Z " transform="translate(297,691)" style="fill: #D5D7DF;"/>
    <path d="M0 0 C2.86724686 0.57344937 3.8614515 0.8614515 6 3 C6.66 2.67 7.32 2.34 8 2 C8 3.65 8 5.3 8 7 C4.46399535 5.08864614 2.21027154 3.37357234 0 0 Z " transform="translate(568,456)" style="fill: #6F75E4;"/>
    <path d="M0 0 C2.1519437 3.22791555 2.20086443 4.28400809 2 8 C0.02 6.35 -1.96 4.7 -4 3 C-2.68 2.01 -1.36 1.02 0 0 Z " transform="translate(446,448)" style="fill: #9F96E7;"/>
    <path d="M0 0 C4.875 3.625 4.875 3.625 6 7 C2.34683329 5.75023244 1.21934164 5.32901247 -1 2 C-0.67 1.34 -0.34 0.68 0 0 Z " transform="translate(513,426)" style="fill: #7992EF;"/>
    <path d="M0 0 C1 3 1 3 1 5 C-0.32 5.33 -1.64 5.66 -3 6 C-3.66 5.01 -4.32 4.02 -5 3 C-3.35 2.01 -1.7 1.02 0 0 Z " transform="translate(494,488)" style="fill: #7499E3;"/>
    <path d="M0 0 C0.33 0.99 0.66 1.98 1 3 C0.01 3.99 -0.98 4.98 -2 6 C-1.67 6.66 -1.34 7.32 -1 8 C-1.99 8.33 -2.98 8.66 -4 9 C-4.33 8.34 -4.66 7.68 -5 7 C-1.125 1.125 -1.125 1.125 0 0 Z " transform="translate(355,343)" style="fill: #BF61C0;"/>
    <path d="M0 0 C5.75 1.625 5.75 1.625 8 5 C5.525 4.01 5.525 4.01 3 3 C2.67 3.99 2.34 4.98 2 6 C1.67 6 1.34 6 1 6 C0.67 4.02 0.34 2.04 0 0 Z " transform="translate(407,331)" style="fill: #B766C0;"/>
    <path d="M0 0 C2.97 0.495 2.97 0.495 6 1 C6.33 2.32 6.66 3.64 7 5 C4.625 4.75 4.625 4.75 2 4 C0.6875 1.9375 0.6875 1.9375 0 0 Z " transform="translate(401,330)" style="fill: #CD6ED9;"/>
    <path d="M0 0 C0.66 0.99 1.32 1.98 2 3 C-0.375 4.5625 -0.375 4.5625 -3 6 C-3.66 5.67 -4.32 5.34 -5 5 C-3.35 3.35 -1.7 1.7 0 0 Z " transform="translate(648,418)" style="fill: #A63FD7;"/>
    <path d="M0 0 C2.31 0.66 4.62 1.32 7 2 C7 2.99 7 3.98 7 5 C4.03 4.505 4.03 4.505 1 4 C0.67 2.68 0.34 1.36 0 0 Z " transform="translate(410,334)" style="fill: #C96FDA;"/>
    <path d="M0 0 C2.9375 0.8125 2.9375 0.8125 6 2 C6.33 2.99 6.66 3.98 7 5 C6.01 5 5.02 5 4 5 C1.8125 2.5 1.8125 2.5 0 0 Z " transform="translate(454,683)" style="fill: #363E4C;"/>
    <path d="M0 0 C2.475 0.495 2.475 0.495 5 1 C5 2.65 5 4.3 5 6 C3.2925002 4.71937515 1.62626404 3.38232443 0 2 C0 1.34 0 0.68 0 0 Z " transform="translate(352,578)" style="fill: #A446B1;"/>
    -->
</svg>